<svg width="11" height="11" viewBox="0 0 11 11" fill="none" xmlns="http://www.w3.org/2000/svg">
<path d="M0.399602 0.528737L2.63393 0.0131227C2.8767 -0.0427355 3.12591 0.0840196 3.22474 0.311749L4.25597 2.71795C4.3462 2.92849 4.28605 3.17556 4.10773 3.3195L2.8058 4.3851C3.57922 6.03292 4.93056 7.40359 6.61276 8.19205L7.67836 6.89013C7.82445 6.71181 8.06937 6.65165 8.27991 6.74189L10.6861 7.77311C10.916 7.87409 11.0427 8.1233 10.9869 8.36607L10.4713 10.6004C10.4176 10.8324 10.2113 11 9.96855 11C4.46651 11 0 6.54209 0 1.03146C0 0.790841 0.165427 0.582447 0.399602 0.528737Z" fill="white"/>
</svg>
