<svg width="20" height="19" viewBox="0 0 20 19" fill="none" xmlns="http://www.w3.org/2000/svg">
<path d="M17.8571 0H2.14286C1.57454 0 1.02949 0.214476 0.627628 0.596247C0.225765 0.978017 0 1.49581 0 2.03571L0 16.9643C0 17.5042 0.225765 18.022 0.627628 18.4038C1.02949 18.7855 1.57454 19 2.14286 19H8.27009V12.5404H5.45759V9.5H8.27009V7.18268C8.27009 4.54685 9.92188 3.09089 12.4518 3.09089C13.6634 3.09089 14.9304 3.29616 14.9304 3.29616V5.88321H13.5344C12.1589 5.88321 11.7299 6.69411 11.7299 7.52578V9.5H14.8004L14.3094 12.5404H11.7299V19H17.8571C18.4255 19 18.9705 18.7855 19.3724 18.4038C19.7742 18.022 20 17.5042 20 16.9643V2.03571C20 1.49581 19.7742 0.978017 19.3724 0.596247C18.9705 0.214476 18.4255 0 17.8571 0Z" fill="white"/>
</svg>
