<svg width="16" height="17" viewBox="0 0 16 17" fill="none" xmlns="http://www.w3.org/2000/svg">
<path d="M14.6369 2.18945L12.8869 0.466803C12.5833 0.167916 12.1715 2.21025e-06 11.7421 0L5.93651 0C5.04232 0 4.31746 0.713535 4.31746 1.59375V3.1875H1.61905C0.724861 3.1875 0 3.90104 0 4.78125V15.4062C0 16.2865 0.724861 17 1.61905 17H9.1746C10.0688 17 10.7936 16.2865 10.7936 15.4062V13.8125H13.4921C14.3862 13.8125 15.1111 13.099 15.1111 12.2188V3.31639C15.1111 2.89371 14.9405 2.48833 14.6369 2.18945ZM8.97222 15.4062H1.82143C1.76775 15.4062 1.71628 15.3853 1.67832 15.3479C1.64037 15.3105 1.61905 15.2599 1.61905 15.207V4.98047C1.61905 4.92763 1.64037 4.87696 1.67832 4.8396C1.71628 4.80224 1.76775 4.78125 1.82143 4.78125H4.31746V12.2188C4.31746 13.099 5.04232 13.8125 5.93651 13.8125H9.1746V15.207C9.1746 15.2599 9.15328 15.3105 9.11533 15.3479C9.07737 15.3853 9.0259 15.4062 8.97222 15.4062ZM13.2897 12.2188H6.13889C6.08521 12.2188 6.03374 12.1978 5.99578 12.1604C5.95783 12.123 5.93651 12.0724 5.93651 12.0195V1.79297C5.93651 1.74013 5.95783 1.68946 5.99578 1.6521C6.03374 1.61474 6.08521 1.59375 6.13889 1.59375H9.71428V4.51562C9.71428 4.95573 10.0767 5.3125 10.5238 5.3125H13.4921V12.0195C13.4921 12.0724 13.4707 12.123 13.4328 12.1604C13.3948 12.1978 13.3434 12.2188 13.2897 12.2188ZM13.4921 3.71875H11.3333V1.59375H11.6582C11.7119 1.59375 11.7634 1.61473 11.8013 1.65209L13.4328 3.25806C13.4516 3.27656 13.4665 3.29852 13.4767 3.32269C13.4868 3.34687 13.4921 3.37277 13.4921 3.39894V3.71875Z" fill="white"/>
</svg>
