<svg width="20" height="17" viewBox="0 0 20 17" fill="none" xmlns="http://www.w3.org/2000/svg">
<path d="M7.57531 14.0828C7.47288 13.8862 7.29441 13.8663 7.22219 13.8663C7.14997 13.8663 6.9715 13.8859 6.87428 14.0718L6.60796 14.5812C6.38678 15.0055 5.73886 14.9587 5.58435 14.5118L4.99998 12.836L4.63158 13.8945C4.42706 14.4809 3.8545 14.875 3.20797 14.875H2.77777C2.47082 14.875 2.22221 14.6373 2.22221 14.3438C2.22221 14.0502 2.47082 13.8125 2.77777 13.8125H3.20797C3.37568 13.8125 3.52429 13.7102 3.57742 13.5582L4.20901 11.7439C4.32359 11.4182 4.64095 11.1991 4.99998 11.1991C5.359 11.1991 5.67636 11.4179 5.7906 11.7439L6.27254 13.1265C6.9583 12.589 8.14962 12.8045 8.5642 13.5967C8.62982 13.7222 8.75482 13.7942 8.8892 13.8045V11.0779L13.3336 6.85811V5.3125H8.61107C8.15274 5.3125 7.77774 4.95391 7.77774 4.51562V0H0.83333C0.371526 0 0 0.355273 0 0.796875V16.2031C0 16.6447 0.371526 17 0.83333 17H12.4999C12.9618 17 13.3333 16.6447 13.3333 16.2031V14.875L8.88885 14.8713C8.32913 14.8611 7.82705 14.5632 7.57531 14.0828ZM13.3333 4.04746C13.3333 3.83828 13.2465 3.63574 13.0902 3.48633L9.69093 0.232422C9.53468 0.0830078 9.32288 0 9.10066 0H8.88885V4.25H13.3333V4.04746ZM9.99996 11.5202V13.8125H12.3954L18.0093 8.4077L15.6524 6.15387L9.99996 11.5202ZM19.7409 5.55588L18.6343 4.4977C18.2892 4.16766 17.7291 4.16766 17.384 4.4977L16.4378 5.40248L18.7947 7.65631L19.7409 6.75152C20.0864 6.42148 20.0864 5.88592 19.7409 5.55588Z" fill="white"/>
</svg>
