<svg width="13" height="17" viewBox="0 0 13 17" fill="none" xmlns="http://www.w3.org/2000/svg">
<path d="M9.75 8.23438V9.16406C9.75 9.3832 9.56719 9.5625 9.34375 9.5625H3.65625C3.43281 9.5625 3.25 9.3832 3.25 9.16406V8.23438C3.25 8.01523 3.43281 7.83594 3.65625 7.83594H9.34375C9.56719 7.83594 9.75 8.01523 9.75 8.23438ZM9.34375 10.625H3.65625C3.43281 10.625 3.25 10.8043 3.25 11.0234V11.9531C3.25 12.1723 3.43281 12.3516 3.65625 12.3516H9.34375C9.56719 12.3516 9.75 12.1723 9.75 11.9531V11.0234C9.75 10.8043 9.56719 10.625 9.34375 10.625ZM13 4.37949V15.4062C13 16.2861 12.2721 17 11.375 17H1.625C0.727865 17 0 16.2861 0 15.4062V1.59375C0 0.713867 0.727865 0 1.625 0H8.53464C8.96458 0 9.3776 0.169336 9.68229 0.468164L12.5227 3.25391C12.8273 3.54941 13 3.95781 13 4.37949ZM8.66667 1.72324V4.25H11.243L8.66667 1.72324ZM11.375 15.4062V5.84375H7.85417C7.40391 5.84375 7.04167 5.48848 7.04167 5.04688V1.59375H1.625V15.4062H11.375Z" fill="white"/>
</svg>
