<svg width="20" height="19" viewBox="0 0 20 19" fill="none" xmlns="http://www.w3.org/2000/svg">
<path d="M17.8571 0H2.14286C0.959821 0 0 0.91183 0 2.03571V16.9643C0 18.0882 0.959821 19 2.14286 19H17.8571C19.0402 19 20 18.0882 20 16.9643V2.03571C20 0.91183 19.0402 0 17.8571 0ZM15.6741 6.73482C15.683 6.85357 15.683 6.97656 15.683 7.09531C15.683 10.7723 12.7366 15.0092 7.35268 15.0092C5.69196 15.0092 4.15179 14.5511 2.85714 13.7623C3.09375 13.7877 3.32143 13.7962 3.5625 13.7962C4.93304 13.7962 6.19196 13.3551 7.19643 12.6087C5.91071 12.5833 4.83036 11.7817 4.45982 10.679C4.91071 10.7426 5.31696 10.7426 5.78125 10.6281C4.44196 10.3694 3.4375 9.24978 3.4375 7.89687V7.86295C3.82589 8.07076 4.28125 8.19799 4.75893 8.21496C4.35733 7.96118 4.02812 7.61691 3.80066 7.21286C3.5732 6.8088 3.45457 6.35754 3.45536 5.89933C3.45536 5.38192 3.59821 4.90692 3.85268 4.49554C5.29464 6.18348 7.45982 7.28616 9.88839 7.40491C9.47321 5.51763 10.9598 3.98661 12.7455 3.98661C13.5893 3.98661 14.3482 4.32165 14.8839 4.86451C15.5446 4.74576 16.1786 4.5125 16.7411 4.19442C16.5223 4.83906 16.0625 5.38192 15.4554 5.72545C16.0446 5.66607 16.6161 5.50915 17.1429 5.29286C16.7455 5.84844 16.2455 6.3404 15.6741 6.73482Z" fill="white"/>
</svg>
