<svg width="159" height="70" viewBox="0 0 159 70" fill="none" xmlns="http://www.w3.org/2000/svg">
<path d="M60.9959 26.2209C60.9959 26.5446 60.9959 26.8682 60.9312 27.1918C61.1254 26.9976 61.3196 26.8035 61.5137 26.5446C61.3843 26.4798 61.1901 26.3504 60.9959 26.2209Z" fill="url(#paint0_linear_803_764)"/>
<path d="M68.1805 17.289C68.1805 17.3537 68.1805 17.4831 68.1805 17.6126L70.5106 17.8715C69.9928 17.4831 69.2161 17.1595 68.6336 17.1595C68.3747 17.2242 68.2452 17.2242 68.1805 17.289Z" fill="url(#paint1_linear_803_764)"/>
<path d="M42.4846 32.3051C46.4328 31.2048 49.6043 29.3278 50.4457 27.6449C50.7046 27.0624 50.7046 26.5446 50.4457 25.8973C50.2516 25.4443 49.7338 24.2792 47.2742 24.2792C43.1965 24.2792 36.9829 27.5155 34.135 31.0753L34.0703 31.1401C33.4878 31.7873 33.0994 32.4993 32.7758 33.1465C33.7467 33.2113 34.6528 33.2113 35.6237 33.2113C38.2127 33.1465 40.4134 32.8876 42.4846 32.3051Z" fill="url(#paint2_linear_803_764)"/>
<path d="M51.0283 52.7583C53.682 53.2761 56.4005 53.535 58.9247 53.535C59.572 53.535 60.2192 53.535 60.8665 53.4703C58.2775 50.946 56.4005 47.3214 55.7532 42.9848V42.8554C55.4296 40.3311 55.6238 37.8068 56.3357 35.412C54.7823 36.8359 52.7759 38.0657 50.5105 39.2308C46.3034 41.302 41.5784 42.2728 35.559 42.2728C35.3001 42.2728 34.9765 42.2728 34.7176 42.2728C38.2127 47.1919 44.8794 51.658 51.0283 52.7583Z" fill="url(#paint3_linear_803_764)"/>
<path d="M111.223 22.3375C111.676 21.6255 112.258 20.2016 111.74 19.2954C111.287 18.454 109.928 17.9362 108.31 17.9362C105.268 17.9362 101.061 19.7485 98.4717 24.7971L98.407 24.9265L98.3423 25.056C97.8245 25.8327 97.3714 26.6094 96.9183 27.5155C98.0187 27.7097 99.1837 27.8391 100.284 27.8391C102.679 27.7097 108.439 27.1919 111.223 22.3375Z" fill="url(#paint4_linear_803_764)"/>
<path d="M95.1061 38.0657C95.9475 42.8554 98.7307 45.7033 102.549 45.7033C104.426 45.7033 106.498 44.9913 108.439 43.6321C112.711 40.7194 115.171 35.8651 117.695 30.6223C116.983 31.3343 116.206 31.9168 115.365 32.4346C111.352 34.9589 105.268 36.4476 99.119 36.4476C97.6951 36.4476 96.2711 36.3829 94.9766 36.1887C94.9119 36.8359 94.9766 37.4185 95.1061 38.0657Z" fill="url(#paint5_linear_803_764)"/>
<path d="M158.019 8.16266C156.465 15.9297 153.488 23.2436 149.346 29.975C135.3 52.4993 111.999 66.4799 79.1191 69.1336C56.7242 70.9459 37.5009 70.6223 12.0639 43.1142C12.5817 42.92 13.0995 42.7258 13.6173 42.5316C15.3649 41.9491 17.1772 41.6255 18.7306 41.5608C18.9895 41.5608 19.2484 41.5608 19.4426 41.5608C19.7662 41.5608 20.0898 41.5608 20.3487 41.5608C22.3552 41.5608 24.1675 42.8553 24.8795 44.6676C28.2452 52.7582 36.3358 59.4249 46.4329 62.0139C50.7695 63.1142 54.9766 63.6967 58.9249 63.6967C74.0058 63.6967 82.6142 55.8003 87.2097 49.1336C87.8569 48.1627 88.5042 47.1918 89.022 46.1562C91.4168 51.2048 96.1417 54.1821 101.838 54.1821C107.339 54.1821 113.1 51.399 118.213 46.3504C122.55 42.0786 124.944 36.6417 127.08 31.852C128.31 29.1983 129.41 26.6093 130.705 24.9264C130.252 27.9685 128.957 32.4345 128.31 34.1821C127.728 35.7355 127.08 37.9362 128.245 39.6837C128.634 40.2663 129.54 41.2371 131.287 41.2371C132.064 41.2371 132.711 41.043 133.229 40.9135C140.931 38.6481 153.682 16.1886 158.019 8.16266Z" fill="url(#paint6_linear_803_764)"/>
<path d="M85.2678 21.8197C84.3617 11.9815 78.407 8.4216 72.9054 8.4216C69.928 8.4216 67.2096 9.4572 65.462 11.1401C66.5623 10.6223 67.7921 10.3634 69.1513 10.3634C72.9701 10.3634 77.6303 12.6935 78.7953 17.8067C79.3779 20.331 79.0542 22.2728 78.4717 23.6967C78.7953 23.9556 79.119 24.2145 79.3779 24.4734C84.6206 29.2631 80.6724 38.1951 80.6724 38.1951C80.6724 38.1951 79.1837 28.6805 72.8406 28.6805C69.8633 28.6805 66.2387 31.1401 65.0736 35.865V35.9945L65.0089 36.1239C63.8439 39.2954 64.3617 42.92 66.2387 45.6385C67.0801 46.8035 68.8924 48.7453 71.7403 48.7453C72.9054 48.7453 74.1351 48.4217 75.3649 47.7744C79.0542 45.7032 81.5785 41.6903 83.5203 37.6773C84.1675 35.8003 84.6206 33.7938 84.9442 31.6579C84.1675 30.687 83.6497 29.6514 83.4555 28.4864C83.0025 26.0915 83.5203 23.8909 84.9442 22.1433C85.0737 22.0786 85.1384 21.9491 85.2678 21.8197Z" fill="url(#paint7_linear_803_764)"/>
<path d="M6.62688 51.8521C3.45536 52.0463 5.00876 47.4508 7.72721 47.9039C12.1285 48.6806 10.3162 54.8295 6.69161 55.2825C2.03141 55.8004 -0.428143 52.1757 1.06053 46.8036C2.54921 41.2372 7.59776 37.3537 12.9699 35.8003C22.8729 32.8877 33.2936 37.7421 43.1965 34.7647C47.9214 33.4702 54.9765 30.0398 52.7758 24.8618C49.7985 17.9362 36.724 23.5026 32.0638 29.3925C23.6496 39.3602 38.601 53.1466 50.5752 55.3473C68.504 58.6483 89.0865 52.2405 87.9862 23.1789C87.0154 -2.64634 55.559 4.27923 62.0962 18.9718C63.9085 23.5673 73.682 25.056 73.8114 18.9718C73.8762 14.5705 65.3325 12.4993 65.6561 17.8068C65.8503 20.0721 69.9927 20.5252 70.3163 17.8715C69.9279 21.3019 65.1383 20.5899 64.5558 17.9362C63.0671 11.399 74.7176 11.0754 76.3357 18.3893C78.86 29.8456 60.6075 27.9686 58.0185 18.1951C53.0994 -0.510416 82.6788 -6.40039 89.6691 11.7873C97.5655 32.4346 84.8794 69.1984 47.08 59.4897C25.656 54.0528 17.3712 30.8812 37.1771 19.8132C53.2289 10.8812 68.8276 27.4508 49.3454 36.9654C39.6366 41.8197 28.8923 38.8424 18.6657 39.0366C11.8696 39.3602 1.77251 43.4379 3.58481 51.7227C5.00876 55.8004 11.2224 52.4346 8.63336 49.1337C6.36798 47.0625 3.26118 51.3991 6.62688 51.8521Z" fill="#C1A11A"/>
<path d="M80.4134 35.8002C80.2192 21.8844 65.3972 24.0203 62.5493 35.2177C59.313 44.2145 66.8858 55.153 76.5946 50.0397C82.1609 46.9329 85.3325 40.4604 87.6626 34.6352L87.5978 34.9588C89.3454 27.9038 92.5817 21.2371 97.6302 15.8649C103.52 9.58662 117.501 7.32124 119.507 18.3892C120.284 22.7258 117.954 27.7743 114.006 30.2986C105.721 35.5413 87.4684 35.4119 86.0444 28.0332C84.8147 21.6902 93.8762 19.619 93.5525 26.6093C93.5525 30.7517 91.805 34.2468 92.5817 38.5187C94.2645 47.8391 102.29 51.0106 109.928 45.7679C118.731 39.7485 120.349 26.9329 127.922 18.7776C131.546 14.8941 136.724 14.441 136.659 19.2954C136.595 24.4086 133.035 36.5122 132.582 36.2533C132.193 35.9297 131.934 35.9944 131.934 35.9944C136.271 36.1239 147.145 23.1789 154.006 13.2759C148.18 24.085 136.854 37.4831 132.905 38.6481C131.87 38.9718 129.087 39.2954 130.705 35.153C131.158 33.9879 136.854 16.3827 130.316 21.5607C125.462 25.3795 123.779 37.0947 116.336 44.5381C106.044 54.8294 94.5881 53.2113 91.0283 44.4087C89.0218 39.4249 88.3745 32.8876 89.7985 27.8391C89.8632 27.1918 89.9927 25.8326 89.8632 25.8973C88.3745 26.4798 90.6399 27.9038 91.5461 28.4216C98.3422 31.5931 109.151 31.2695 113.488 23.6319C118.86 14.2468 102.679 11.0106 96.2063 23.5672C91.805 30.4281 90.4457 38.3892 86.3681 45.5737C78.6658 59.0365 60.8664 58.3246 58.3421 42.5964C56.2709 25.3795 80.8017 14.9588 80.4134 35.8002Z" fill="#C1A11A"/>
<defs>
<linearGradient id="paint0_linear_803_764" x1="60.9715" y1="26.7041" x2="61.577" y2="26.7041" gradientUnits="userSpaceOnUse">
<stop stop-color="#219D64"/>
<stop offset="0.514" stop-color="#50B748"/>
</linearGradient>
<linearGradient id="paint1_linear_803_764" x1="68.1818" y1="17.5424" x2="70.5356" y2="17.5424" gradientUnits="userSpaceOnUse">
<stop stop-color="#219D64"/>
<stop offset="0.514" stop-color="#50B748"/>
</linearGradient>
<linearGradient id="paint2_linear_803_764" x1="32.739" y1="28.6973" x2="50.5976" y2="28.6973" gradientUnits="userSpaceOnUse">
<stop stop-color="#219D64"/>
<stop offset="0.514" stop-color="#50B748"/>
</linearGradient>
<linearGradient id="paint3_linear_803_764" x1="34.67" y1="44.5095" x2="60.8771" y2="44.5095" gradientUnits="userSpaceOnUse">
<stop stop-color="#219D64"/>
<stop offset="0.514" stop-color="#50B748"/>
</linearGradient>
<linearGradient id="paint4_linear_803_764" x1="96.9533" y1="22.8086" x2="111.969" y2="22.8086" gradientUnits="userSpaceOnUse">
<stop stop-color="#219D64"/>
<stop offset="0.514" stop-color="#50B748"/>
</linearGradient>
<linearGradient id="paint5_linear_803_764" x1="94.9298" y1="38.1435" x2="117.663" y2="38.1435" gradientUnits="userSpaceOnUse">
<stop stop-color="#219D64"/>
<stop offset="0.514" stop-color="#50B748"/>
</linearGradient>
<linearGradient id="paint6_linear_803_764" x1="12.0402" y1="38.9687" x2="158.024" y2="38.9687" gradientUnits="userSpaceOnUse">
<stop stop-color="#219D64"/>
<stop offset="0.514" stop-color="#50B748"/>
</linearGradient>
<linearGradient id="paint7_linear_803_764" x1="64.3778" y1="28.6032" x2="85.2609" y2="28.6032" gradientUnits="userSpaceOnUse">
<stop stop-color="#219D64"/>
<stop offset="0.514" stop-color="#50B748"/>
</linearGradient>
</defs>
</svg>
