<svg width="32" height="28" viewBox="0 0 32 28" fill="none" xmlns="http://www.w3.org/2000/svg">
<path d="M17.343 20.242C16.952 20.633 16.952 21.266 17.343 21.656C17.7341 22.047 18.367 22.047 18.757 21.656L25.656 14.756C25.8641 14.548 25.953 14.271 25.939 13.999C25.953 13.726 25.864 13.45 25.656 13.242L18.757 6.34301C18.367 5.952 17.733 5.952 17.343 6.34301C16.952 6.73401 16.952 7.36701 17.343 7.75697L22.586 12.9999H1C0.448 13 0 13.448 0 14C0 14.552 0.448 15 1 15H22.586L17.343 20.242ZM28 0H8C5.79101 0 4 1.79101 4 4V8H6V4C6 2.896 6.89501 2 8 2H28C29.105 2 30 2.896 30 4V24C30 25.104 29.105 26 28 26H8C6.89501 26 6 25.105 6 24V20H4V24C4 26.209 5.79101 28 8 28H28C30.209 28 32 26.209 32 24V4C32 1.79101 30.209 0 28 0Z" fill="white"/>
</svg>
