<svg width="11" height="11" viewBox="0 0 11 11" fill="none" xmlns="http://www.w3.org/2000/svg">
<rect width="11" height="11" fill="white"/>
<path d="M5.5 0C2.46244 0 0 2.46244 0 5.5C0 8.53756 2.46244 11 5.5 11C8.53756 11 11 8.53756 11 5.5C10.9961 2.46406 8.53594 0.00389318 5.5 0ZM5.73595 10.5163V9.54891C5.73595 9.4186 5.6303 9.31296 5.5 9.31296C5.3697 9.31296 5.26405 9.4186 5.26405 9.54891V10.5163C2.67683 10.3928 0.607218 8.32317 0.483698 5.73595H1.45109C1.5814 5.73595 1.68704 5.6303 1.68704 5.5C1.68704 5.3697 1.5814 5.26405 1.45109 5.26405H0.483698C0.607218 2.67683 2.67683 0.607218 5.26405 0.483698V1.45109C5.26405 1.5814 5.3697 1.68704 5.5 1.68704C5.6303 1.68704 5.73595 1.5814 5.73595 1.45109V0.483698C8.32317 0.607218 10.3928 2.67683 10.5163 5.26405H9.54891C9.4186 5.26405 9.31296 5.3697 9.31296 5.5C9.31296 5.6303 9.4186 5.73595 9.54891 5.73595H9.55127H10.5187C10.3951 8.32403 8.32409 10.394 5.73595 10.5163Z" fill="black" fill-opacity="0.8"/>
<path d="M7.98926 7.69439L5.73594 5.40331V3.02257C5.73594 2.89227 5.63029 2.78662 5.49999 2.78662C5.36968 2.78662 5.26404 2.89227 5.26404 3.02257V5.50005C5.2643 5.56196 5.28887 5.62127 5.33246 5.66522L7.65186 8.02472C7.74308 8.11789 7.89255 8.11949 7.98573 8.02826C8.0789 7.93704 8.08049 7.78756 7.98926 7.69439Z" fill="black" fill-opacity="0.8"/>
</svg>
