<svg width="39" height="39" viewBox="0 0 39 39" fill="none" xmlns="http://www.w3.org/2000/svg">
<path d="M25.0486 28.087C24.6386 27.8406 24.2177 27.5929 23.7969 27.35C23.8958 26.5068 23.8961 25.6538 23.7973 24.8123C24.2198 24.5685 24.6404 24.321 25.0485 24.0756C25.7355 23.6628 26.0219 22.7917 25.7145 22.0492C25.7145 22.0492 25.7145 22.0492 25.7144 22.0492L24.8178 19.8845C24.5103 19.1423 23.6922 18.7286 22.914 18.9225C22.4516 19.0376 21.9791 19.16 21.5083 19.2863C20.9826 18.6211 20.3794 18.0181 19.7135 17.4921C19.8398 17.0212 19.9622 16.5485 20.0774 16.0859C20.2713 15.3081 19.8577 14.4897 19.1154 14.1822L16.9508 13.2856C16.2086 12.978 15.3373 13.2642 14.9243 13.9514C14.6783 14.3608 14.4305 14.7816 14.1874 15.2032C13.3444 15.1042 12.4916 15.104 11.6496 15.2026C11.4057 14.7798 11.1581 14.3591 10.9131 13.9514C10.4999 13.2644 9.6288 12.9781 8.88651 13.2856L6.72186 14.1822C5.9798 14.4897 5.56604 15.3081 5.75989 16.0859C5.87529 16.5494 5.99762 17.022 6.12369 17.4917C5.45863 18.0172 4.85551 18.6205 4.32962 19.2865C3.85766 19.1598 3.38494 19.0375 2.92326 18.9225C2.14525 18.7285 1.32701 19.1425 1.01951 19.8846L0.123042 22.0492C-0.184311 22.7915 0.102018 23.6626 0.788934 24.0755C1.19836 24.3215 1.6192 24.5692 2.04066 24.8124C1.94179 25.6554 1.94156 26.5082 2.04021 27.3502C1.61837 27.5935 1.19775 27.8412 0.788782 28.0869C0.101866 28.4998 -0.184463 29.3709 0.122966 30.1133L1.01966 32.2779C1.32709 33.0201 2.14509 33.4339 2.92342 33.24C3.38532 33.125 3.85789 33.0026 4.32901 32.8762C4.85467 33.5413 5.45787 34.1442 6.12384 34.6703C5.9974 35.1417 5.87499 35.6144 5.75989 36.0765C5.56604 36.8543 5.97965 37.6727 6.72186 37.9802L8.88659 38.8768C9.08768 38.9601 9.29814 38.9999 9.50639 38.9999C10.0672 38.9999 10.6119 38.712 10.9134 38.2111C11.1575 37.8049 11.4051 37.3842 11.6502 36.9595C12.4931 37.0582 13.3461 37.0584 14.188 36.9599C14.4301 37.3798 14.6778 37.8004 14.9246 38.2112C15.3376 38.8982 16.2087 39.1844 16.9511 38.877L19.1157 37.9804C19.8578 37.673 20.2716 36.8545 20.0777 36.0767C19.9632 35.6172 19.8409 35.1446 19.7139 34.671C20.3788 34.1454 20.982 33.5422 21.5081 32.8762C21.9787 33.0024 22.4514 33.1247 22.9142 33.2401C23.692 33.4341 24.5105 33.0204 24.818 32.278L25.7146 30.1133C26.0218 29.371 25.7355 28.4998 25.0486 28.087ZM23.2412 31.5224C22.7966 31.411 22.3434 31.2933 21.8927 31.1719C21.2547 31.0002 20.5814 31.2246 20.1774 31.7437C19.7131 32.3401 19.1757 32.8776 18.5803 33.3412C18.0618 33.7451 17.8377 34.4181 18.0095 35.0558C18.1316 35.5093 18.2493 35.9622 18.36 36.4037L16.3702 37.2278C16.1336 36.8329 15.8966 36.4295 15.6649 36.027C15.3354 35.4546 14.701 35.1374 14.0489 35.2182C13.3 35.3112 12.5399 35.3111 11.7901 35.2178C11.1362 35.1366 10.5023 35.4538 10.1728 36.0263C9.93836 36.4333 9.70132 36.837 9.46724 37.2277L7.47749 36.4036C7.58877 35.9597 7.70653 35.5066 7.8281 35.0552C7.99987 34.4173 7.77539 33.7439 7.25628 33.3399C6.65986 32.8756 6.12247 32.3383 5.65874 31.7429C5.25503 31.2243 4.58198 31.0003 3.94411 31.172C3.49295 31.2935 3.03996 31.4113 2.59626 31.5225L1.77208 29.5328C2.16513 29.2971 2.56876 29.0602 2.97293 28.8274C3.54536 28.4979 3.86284 27.8636 3.78179 27.2115C3.68864 26.4625 3.68886 25.7025 3.78202 24.9526C3.86337 24.2998 3.54612 23.6649 2.97338 23.3352C2.56937 23.1026 2.16566 22.8656 1.772 22.6295L2.59618 20.6398C3.0395 20.751 3.49257 20.8687 3.94457 20.9904C4.58228 21.1622 5.25564 20.9377 5.65996 20.4186C6.12422 19.8221 6.66161 19.2847 7.25689 18.8211C7.77547 18.4173 7.99949 17.7442 7.82772 17.1063C7.70661 16.6566 7.58885 16.2037 7.47726 15.7585L9.46701 14.9344C9.70193 15.3264 9.93897 15.73 10.1723 16.1353C10.502 16.7077 11.1368 17.0256 11.7883 16.9441C12.5369 16.8509 13.2968 16.8509 14.0474 16.9444C14.7005 17.0258 15.335 16.7082 15.6646 16.1357C15.8971 15.7317 16.1342 15.328 16.3701 14.9344L18.3598 15.7585C18.2485 16.2028 18.1307 16.656 18.0092 17.107C17.8374 17.7449 18.0619 18.4182 18.581 18.8223C19.1774 19.2866 19.7148 19.8239 20.1786 20.4192C20.5823 20.9377 21.2551 21.1618 21.8933 20.9901C22.3441 20.8687 22.797 20.7509 23.2411 20.6396L24.0652 22.6293C23.6726 22.8646 23.2691 23.1015 22.8643 23.3346C22.2919 23.6642 21.9743 24.2985 22.0554 24.9507C22.1486 25.6992 22.1484 26.4593 22.0551 27.2097C21.9739 27.8626 22.2913 28.4973 22.8638 28.8269C23.2672 29.0592 23.6709 29.2962 24.0652 29.5325L23.2412 31.5224Z" fill="white"/>
<path d="M18.4154 23.8045C18.4154 23.8045 18.4154 23.8045 18.4153 23.8044C17.16 20.7736 13.6732 19.3291 10.642 20.5845C7.61124 21.84 6.16672 25.3271 7.42218 28.3579C8.03026 29.8262 9.1739 30.9696 10.642 31.5779C11.3761 31.8819 12.1474 32.0339 12.9187 32.0339C13.69 32.0339 14.4614 31.8819 15.1956 31.5779C18.2263 30.3224 19.6707 26.8353 18.4154 23.8045ZM14.5275 29.965C13.4902 30.3947 12.3477 30.3946 11.3101 29.965C10.2728 29.5353 9.4648 28.7273 9.03504 27.6899C8.14787 25.5484 9.16857 23.0844 11.3101 22.1974C11.8346 21.9801 12.3781 21.8773 12.9133 21.8773C14.5637 21.8773 16.1327 22.8554 16.8026 24.4725C17.6897 26.614 16.669 29.0779 14.5275 29.965Z" fill="white"/>
<path d="M37.8232 7.68846C37.5219 7.64336 37.2124 7.59957 36.9007 7.55798C36.7437 7.03567 36.5339 6.52928 36.2751 6.04833C36.4658 5.79887 36.6538 5.54895 36.8354 5.30345C37.2388 4.75798 37.1804 3.98438 36.6999 3.50405L35.4957 2.30008C35.0152 1.81944 34.2416 1.76116 33.6963 2.16464C33.4499 2.34692 33.2001 2.53484 32.9514 2.72489C32.4705 2.46606 31.9642 2.25628 31.4417 2.09914C31.4001 1.78744 31.3564 1.47796 31.3113 1.1767C31.211 0.505932 30.6228 0 29.9432 0H28.2403C27.5607 0 26.9725 0.505932 26.8722 1.17662C26.8272 1.47773 26.7835 1.78729 26.7418 2.09906C26.2193 2.2562 25.7129 2.46598 25.2322 2.72481C24.9836 2.53469 24.7336 2.3467 24.4873 2.16457C23.9419 1.76109 23.1683 1.81936 22.6879 2.29993L21.4839 3.50382C21.0033 3.98431 20.9448 4.75798 21.3483 5.30352C21.5298 5.54895 21.7178 5.79894 21.9085 6.04833C21.6498 6.5292 21.4399 7.03551 21.2828 7.55798C20.9712 7.59964 20.6616 7.64336 20.3604 7.68846C19.6895 7.78885 19.1836 8.37697 19.1836 9.05665V10.7595C19.1836 11.4391 19.6894 12.0273 20.3602 12.1277C20.6616 12.1728 20.971 12.2166 21.2827 12.2581C21.4399 12.7805 21.6496 13.2868 21.9084 13.7678C21.7179 14.017 21.5299 14.2669 21.348 14.5127C20.9448 15.058 21.003 15.8317 21.4836 16.312L22.6877 17.5161C23.1682 17.9968 23.9418 18.055 24.4872 17.6516C24.7335 17.4694 24.9834 17.2814 25.232 17.0914C25.713 17.3502 26.2194 17.56 26.7417 17.7171C26.7832 18.0287 26.827 18.3382 26.8721 18.6396C26.9725 19.3103 27.5607 19.8163 28.2403 19.8163H29.9432C30.6228 19.8163 31.211 19.3105 31.3113 18.6395C31.3563 18.3382 31.4001 18.0287 31.4417 17.717C31.9641 17.56 32.4704 17.3501 32.9514 17.0912C33.1999 17.2814 33.4499 17.4693 33.6962 17.6516C34.2415 18.055 35.0153 17.9968 35.4957 17.5162L36.6998 16.3122C37.1804 15.8317 37.2387 15.0581 36.8352 14.5126C36.6535 14.2669 36.4655 14.0169 36.2751 13.7679C36.5337 13.287 36.7436 12.7808 36.9007 12.2582C37.2123 12.2166 37.5219 12.1728 37.8232 12.1277C38.494 12.0273 38.9999 11.4392 38.9999 10.7595V9.05673C38.9999 8.37705 38.494 7.78885 37.8232 7.68846ZM37.3415 10.5225C37.0678 10.5622 36.7887 10.6007 36.5086 10.6372C35.9546 10.7095 35.5011 11.1027 35.3535 11.6388C35.212 12.1521 35.0067 12.6475 34.7434 13.111C34.4683 13.595 34.5108 14.1938 34.8515 14.6369C35.0233 14.8602 35.1936 15.085 35.3595 15.3071L34.4908 16.1759C34.268 16.0096 34.0432 15.8393 33.8203 15.6679C33.3775 15.327 32.7785 15.2849 32.2945 15.5597C31.8308 15.8231 31.3355 16.0283 30.8225 16.1698C30.2861 16.3176 29.8929 16.7711 29.8208 17.3249C29.7843 17.605 29.7459 17.8843 29.7061 18.1579H28.4774C28.4378 17.8843 28.3993 17.6051 28.3627 17.3252C28.2904 16.7712 27.8973 16.3176 27.3611 16.1699C26.8479 16.0285 26.3527 15.8232 25.8889 15.5598C25.4049 15.2848 24.8059 15.3271 24.3631 15.6679C24.1402 15.8394 23.9155 16.0096 23.6926 16.1759L22.8239 15.3071C22.9897 15.0848 23.1601 14.8602 23.3321 14.6366C23.6725 14.1937 23.715 13.5948 23.44 13.1109C23.1767 12.6473 22.9714 12.1519 22.8299 11.6387C22.6822 11.1025 22.2288 10.7093 21.6748 10.6371C21.3947 10.6005 21.1155 10.5621 20.8418 10.5223V9.29377C21.1155 9.25409 21.3946 9.21555 21.6747 9.17906C22.2287 9.10677 22.6822 8.71358 22.8299 8.17748C22.9713 7.66424 23.1765 7.16889 23.4399 6.70524C23.715 6.22132 23.6725 5.62238 23.332 5.17944C23.1599 4.9558 22.9896 4.73109 22.8239 4.50913L23.6926 3.64039C23.9154 3.80668 24.1401 3.977 24.3629 4.14831C24.8056 4.48917 25.4045 4.53168 25.8889 4.25662C26.3524 3.9933 26.8478 3.78801 27.3609 3.64649C27.8973 3.49871 28.2905 3.04519 28.3626 2.49134C28.3991 2.21126 28.4377 1.93209 28.4774 1.65848H29.706C29.7457 1.93202 29.7842 2.21119 29.8207 2.49112C29.8929 3.04519 30.2861 3.49871 30.8223 3.64641C31.3356 3.78786 31.831 3.99322 32.2946 4.25655C32.7786 4.5316 33.3776 4.48887 33.8203 4.14838C34.0432 3.977 34.2679 3.80668 34.4908 3.64039L35.3595 4.50913C35.1938 4.73117 35.0235 4.95595 34.8514 5.17967C34.5108 5.62253 34.4685 6.22139 34.7433 6.70531C35.0066 7.16904 35.2119 7.66446 35.3534 8.17756C35.5011 8.7138 35.9545 9.10693 36.5085 9.17921C36.7886 9.21578 37.0678 9.25424 37.3415 9.294V10.5225Z" fill="white"/>
<path d="M29.0921 6.37366C27.1432 6.37366 25.5576 7.95917 25.5576 9.9081C25.5576 11.8571 27.1431 13.4426 29.0921 13.4426C31.041 13.4426 32.6265 11.8571 32.6265 9.9081C32.6265 7.95917 31.041 6.37366 29.0921 6.37366ZM29.0921 11.8714C28.0096 11.8714 27.1287 10.9906 27.1287 9.90802C27.1287 8.82539 28.0095 7.9447 29.0921 7.9447C30.1746 7.9447 31.0553 8.82547 31.0554 9.90802C31.0554 10.9906 30.1746 11.8714 29.0921 11.8714Z" fill="white"/>
</svg>
