<svg width="9" height="10" viewBox="0 0 9 10" fill="none" xmlns="http://www.w3.org/2000/svg">
<path d="M3.64702 0.809162L4.07202 0.338819C4.25198 0.139665 4.54298 0.139665 4.72102 0.338819L8.4427 4.45538C8.62266 4.65453 8.62266 4.97657 8.4427 5.17361L4.72102 9.29229C4.54106 9.49144 4.25007 9.49144 4.07202 9.29229L3.64702 8.82194C3.46515 8.62067 3.46897 8.29228 3.65468 8.09524L5.96158 5.66302H0.459467C0.204846 5.66302 0 5.43632 0 5.15454V4.47657C0 4.19478 0.204846 3.96809 0.459467 3.96809H5.96158L3.65468 1.53586C3.46706 1.33883 3.46323 1.01043 3.64702 0.809162Z" fill="black"/>
</svg>
