<svg width="27" height="27" viewBox="0 0 27 27" fill="none" xmlns="http://www.w3.org/2000/svg">
<path d="M27 13.5C27 6.05635 20.9437 0 13.5 0C6.05635 0 0 6.05635 0 13.5C0 17.4317 1.69069 20.9756 4.38185 23.4448L4.36909 23.4561L4.80698 23.8253C4.83545 23.8493 4.86638 23.869 4.89485 23.8925C5.12755 24.0855 5.36858 24.2686 5.61404 24.4458C5.69356 24.5032 5.77309 24.5607 5.85409 24.6166C6.11624 24.7973 6.38525 24.9686 6.66016 25.1311C6.72005 25.1665 6.78044 25.2008 6.84082 25.2352C7.14175 25.4065 7.44905 25.568 7.76373 25.7163C7.7868 25.7271 7.81036 25.7369 7.83344 25.7477C8.85895 26.2244 9.95367 26.5744 11.0985 26.7811C11.1284 26.7865 11.1584 26.7919 11.1888 26.7973C11.5442 26.8586 11.9036 26.9077 12.2673 26.9406C12.3115 26.9445 12.3557 26.947 12.4004 26.9509C12.7627 26.9809 13.1289 27 13.5 27C13.8677 27 14.2305 26.9809 14.5908 26.9519C14.6365 26.948 14.6821 26.9455 14.7278 26.9416C15.0886 26.9087 15.445 26.8611 15.797 26.8007C15.8274 26.7953 15.8583 26.7899 15.8888 26.784C17.0164 26.5817 18.0954 26.2396 19.1077 25.7752C19.145 25.758 19.1828 25.7418 19.2201 25.7241C19.523 25.5818 19.819 25.4281 20.1091 25.2646C20.1813 25.2239 20.2529 25.1827 20.3246 25.1404C20.5887 24.9848 20.8484 24.8223 21.1007 24.6495C21.1916 24.5877 21.2804 24.5224 21.3703 24.4576C21.5858 24.3025 21.7973 24.1424 22.003 23.975C22.0487 23.9382 22.0978 23.9063 22.1425 23.8685L22.5916 23.4934L22.5784 23.4821C25.2931 21.0119 27 17.4518 27 13.5ZM0.981818 13.5C0.981818 6.59733 6.59733 0.981818 13.5 0.981818C20.4027 0.981818 26.0182 6.59733 26.0182 13.5C26.0182 17.2196 24.3859 20.5637 21.8018 22.8582C21.6574 22.7585 21.5121 22.6692 21.3634 22.5946L17.2069 20.5166C16.8338 20.33 16.6021 19.955 16.6021 19.5382V18.0866C16.6983 17.9678 16.7999 17.8333 16.9049 17.6855C17.443 16.9256 17.8745 16.0802 18.1892 15.1706C18.8111 14.875 19.2127 14.2555 19.2127 13.556V11.8157C19.2127 11.3901 19.0566 10.9772 18.7773 10.6527V8.36166C18.8028 8.10638 18.8931 6.669 17.8529 5.48296C16.9481 4.45009 15.4838 3.92727 13.5 3.92727C11.5162 3.92727 10.0519 4.45009 9.14711 5.48247C8.10687 6.66851 8.1972 8.10687 8.22273 8.36116V10.6522C7.94389 10.9767 7.78729 11.3896 7.78729 11.8152V13.5555C7.78729 14.096 8.0298 14.6001 8.44511 14.9403C8.84274 16.498 9.66109 17.6771 9.96349 18.0767V19.4974C9.96349 19.898 9.74504 20.2662 9.39305 20.4586L5.51144 22.5759C5.38773 22.6432 5.265 22.7217 5.14227 22.8096C2.59004 20.5161 0.981818 17.1926 0.981818 13.5Z" fill="white"/>
</svg>
