<svg width="21" height="19" viewBox="0 0 21 19" fill="none" xmlns="http://www.w3.org/2000/svg">
<path d="M8.61003 15.3884C7.61429 15.3884 6.8042 16.1984 6.8042 17.1942C6.8042 18.1899 7.61429 19 8.61003 19C9.60576 19 10.4159 18.1899 10.4159 17.1942C10.4158 16.1984 9.60572 15.3884 8.61003 15.3884ZM8.61003 17.9916C8.17025 17.9916 7.81249 17.6338 7.81249 17.1941C7.81249 16.7543 8.17029 16.3966 8.61003 16.3966C9.04976 16.3966 9.40757 16.7544 9.40757 17.1941C9.40757 17.6339 9.04976 17.9916 8.61003 17.9916Z" fill="white"/>
<path d="M14.944 15.3884C13.9483 15.3884 13.1382 16.1984 13.1382 17.1942C13.1382 18.1899 13.9483 19 14.944 19C15.9397 19 16.7498 18.1899 16.7498 17.1942C16.7498 16.1984 15.9397 15.3884 14.944 15.3884ZM14.944 17.9916C14.5042 17.9916 14.1465 17.6338 14.1465 17.1941C14.1465 16.7543 14.5043 16.3966 14.944 16.3966C15.3838 16.3966 15.7416 16.7544 15.7416 17.1941C15.7416 17.6339 15.3837 17.9916 14.944 17.9916Z" fill="white"/>
<path d="M15.388 5.88083H8.16332C7.88488 5.88083 7.65918 6.10653 7.65918 6.38497C7.65918 6.66341 7.88492 6.88912 8.16332 6.88912H15.388C15.6664 6.88912 15.8921 6.66341 15.8921 6.38497C15.8921 6.10649 15.6664 5.88083 15.388 5.88083Z" fill="white"/>
<path d="M14.9955 8.49883H8.55737C8.27893 8.49883 8.05322 8.72453 8.05322 9.00297C8.05322 9.28141 8.27893 9.50711 8.55737 9.50711H14.9955C15.2739 9.50711 15.4996 9.28141 15.4996 9.00297C15.4996 8.72457 15.2739 8.49883 14.9955 8.49883Z" fill="white"/>
<path d="M20.3061 3.6346C20.1139 3.39863 19.829 3.26332 19.5245 3.26332H3.82101L3.50387 1.72378C3.43766 1.40263 3.21861 1.13297 2.9178 1.00235L0.705 0.0418691C0.44954 -0.0690978 0.152652 0.0481252 0.0418461 0.303505C-0.0690805 0.558966 0.0481424 0.855893 0.303482 0.9667L2.51632 1.92722L4.95566 13.7683C5.05175 14.2346 5.46706 14.5731 5.94321 14.5731H18.0211C18.2995 14.5731 18.5252 14.3474 18.5252 14.0689C18.5252 13.7905 18.2995 13.5648 18.0211 13.5648H5.94325L5.64653 12.1244H18.1144C18.5905 12.1244 19.0059 11.7859 19.1019 11.3196L20.5121 4.47493C20.5735 4.17688 20.4984 3.87053 20.3061 3.6346ZM18.1144 11.1162H5.43883L4.02875 4.27156L19.5245 4.2716L18.1144 11.1162Z" fill="white"/>
</svg>
