<svg width="42" height="39" viewBox="0 0 42 39" fill="none" xmlns="http://www.w3.org/2000/svg">
<path d="M39.3006 16.8046H37.1905C37.0702 16.3695 36.8116 15.9853 36.4537 15.7102C36.0958 15.4351 35.6581 15.284 35.2067 15.2797H32.9541V9.7712C32.9567 9.66816 32.9317 9.56629 32.8819 9.47605C32.8321 9.3858 32.7592 9.31043 32.6707 9.25766L16.7801 0.0794779C16.6905 0.0274215 16.5888 0 16.4852 0C16.3816 0 16.2799 0.0274215 16.1903 0.0794779L0.294811 9.25766C0.20487 9.3098 0.130262 9.38472 0.0785045 9.47488C0.0267473 9.56504 -0.000329509 9.66725 3.02639e-06 9.7712V28.1277C5.67072e-06 28.2318 0.0274074 28.334 0.0794543 28.4242C0.131501 28.5143 0.206359 28.5892 0.296505 28.6412L16.1936 37.8194C16.2838 37.8714 16.386 37.8988 16.4901 37.8988C16.5969 37.8989 16.7019 37.8716 16.7951 37.8194L25.1603 32.9943V36.4823C25.1595 36.8144 25.2245 37.1434 25.3516 37.4502C25.4788 37.757 25.6655 38.0355 25.901 38.2696C26.1365 38.5038 26.4161 38.6889 26.7236 38.8142C27.0311 38.9396 27.3605 39.0027 27.6926 38.9999H39.3006C39.6336 39.003 39.9638 38.9402 40.2724 38.8152C40.581 38.6901 40.8618 38.5053 41.0986 38.2713C41.3355 38.0373 41.5238 37.7588 41.6526 37.4518C41.7814 37.1448 41.8482 36.8153 41.8492 36.4823V19.3614C41.8488 18.6849 41.5804 18.036 41.1028 17.5568C40.6252 17.0777 39.9772 16.8072 39.3006 16.8046ZM35.2278 16.4657C35.4561 16.4657 35.675 16.5564 35.8364 16.7178C35.9979 16.8793 36.0886 17.0982 36.0886 17.3265V17.3839C36.0886 17.6122 35.9979 17.8312 35.8364 17.9926C35.675 18.154 35.4561 18.2447 35.2278 18.2447H31.7817C31.5534 18.2447 31.3345 18.154 31.1731 17.9926C31.0116 17.8312 30.921 17.6122 30.921 17.3839V17.3265C30.921 17.0982 31.0116 16.8793 31.1731 16.7178C31.3345 16.5564 31.5534 16.4657 31.7817 16.4657H35.2278ZM16.4901 1.27777L23.0957 5.09147L8.3856 13.5843L1.78012 9.77061L16.4901 1.27777ZM15.9264 36.2787L1.18601 27.7852V10.797L15.9264 19.2905V36.2787ZM16.4901 18.2634L9.57161 14.269L24.2817 5.77622L31.2005 9.77061L16.4901 18.2634ZM25.1603 19.3614V31.6249L17.1124 36.2787V19.2905L31.7681 10.797V15.2797H31.7865C31.3351 15.2839 30.8973 15.4351 30.5394 15.7102C30.1815 15.9853 29.9229 16.3694 29.8027 16.8046H27.6926C27.0177 16.8078 26.3718 17.0791 25.8969 17.5586C25.422 18.0381 25.1571 18.6866 25.1603 19.3614ZM40.6632 36.4823C40.6624 36.6596 40.6263 36.8349 40.5572 36.9981C40.488 37.1613 40.3871 37.3092 40.2604 37.4331C40.1336 37.557 39.9835 37.6544 39.8187 37.7198C39.654 37.7852 39.4778 37.8172 39.3006 37.8139H27.6926C27.5162 37.8169 27.341 37.7845 27.1773 37.7189C27.0136 37.6532 26.8646 37.5555 26.7392 37.4314C26.6138 37.3074 26.5145 37.1595 26.447 36.9965C26.3795 36.8335 26.3453 36.6587 26.3463 36.4823V19.3614C26.3446 19.183 26.378 19.0059 26.4447 18.8404C26.5114 18.6749 26.6101 18.5242 26.7352 18.3968C26.8602 18.2695 27.0091 18.1681 27.1734 18.0984C27.3377 18.0287 27.5141 17.992 27.6926 17.9906H29.8258C29.953 18.4103 30.2128 18.7776 30.5663 19.0372C30.9198 19.2969 31.3479 19.4349 31.7865 19.4307H35.2067C35.6453 19.4349 36.0734 19.2969 36.4268 19.0372C36.7803 18.7776 37.0401 18.4103 37.1672 17.9906H39.3006C39.6627 17.9929 40.0092 18.1383 40.2645 18.3951C40.5198 18.652 40.6631 18.9993 40.6632 19.3614V36.4823Z" fill="white"/>
<path d="M28.3753 25.3608H28.996C29.1533 25.3608 29.3041 25.2983 29.4153 25.1871C29.5266 25.0759 29.589 24.9251 29.589 24.7678C29.589 24.6105 29.5266 24.4597 29.4153 24.3485C29.3041 24.2373 29.1533 24.1748 28.996 24.1748H28.9726V22.5652H30.6082C30.6455 22.6844 30.7208 22.7882 30.8226 22.8605C30.9244 22.9328 31.0472 22.9698 31.172 22.9656C31.3295 22.9661 31.4807 22.904 31.5925 22.7931C31.7042 22.6822 31.7675 22.5315 31.7682 22.374V21.975C31.7669 21.8167 31.7032 21.6654 31.591 21.5539C31.4787 21.4423 31.327 21.3796 31.1688 21.3792H28.3753C28.2975 21.3796 28.2206 21.3953 28.1489 21.4255C28.0772 21.4557 28.0121 21.4997 27.9574 21.555C27.9028 21.6103 27.8595 21.6759 27.8302 21.748C27.8009 21.8201 27.7861 21.8972 27.7866 21.975V24.7685C27.7862 24.8461 27.801 24.923 27.8304 24.9948C27.8598 25.0667 27.9031 25.132 27.9578 25.1871C28.0125 25.2421 28.0776 25.2858 28.1492 25.3156C28.2209 25.3454 28.2977 25.3608 28.3753 25.3608Z" fill="white"/>
<path d="M28.3796 30.7825H31.1752C31.3325 30.7825 31.4833 30.7201 31.5945 30.6088C31.7057 30.4976 31.7682 30.3468 31.7682 30.1895V27.3939C31.7682 27.2367 31.7057 27.0858 31.5945 26.9746C31.4833 26.8634 31.3325 26.8009 31.1752 26.8009H28.3796C28.2224 26.8009 28.0715 26.8634 27.9603 26.9746C27.8491 27.0858 27.7866 27.2367 27.7866 27.3939V30.1895C27.7866 30.3468 27.8491 30.4976 27.9603 30.6088C28.0715 30.7201 28.2224 30.7825 28.3796 30.7825ZM28.9726 27.9869H30.5822V29.5965H28.9726V27.9869Z" fill="white"/>
<path d="M28.9961 35.0183H28.9727V33.4087H30.5762C30.5793 33.5646 30.6434 33.7132 30.7547 33.8224C30.866 33.9317 31.0157 33.993 31.1717 33.9931C31.3277 33.9933 31.4775 33.9323 31.589 33.8233C31.7006 33.7142 31.7649 33.5658 31.7683 33.4099V32.8385C31.7677 32.6782 31.7048 32.5243 31.593 32.4094C31.4812 32.2946 31.3291 32.2276 31.1688 32.2227H28.3753C28.2162 32.228 28.0655 32.2955 27.9555 32.4106C27.8454 32.5257 27.7848 32.6793 27.7867 32.8385V35.632C27.7866 35.7085 27.8019 35.7843 27.8316 35.8549C27.8614 35.9254 27.905 35.9893 27.9599 36.0427C28.0148 36.096 28.0799 36.1378 28.1512 36.1656C28.2226 36.1934 28.2988 36.2065 28.3753 36.2043H28.9961C29.1534 36.2043 29.3042 36.1418 29.4155 36.0306C29.5267 35.9194 29.5891 35.7686 29.5891 35.6113C29.5891 35.454 29.5267 35.3032 29.4155 35.192C29.3042 35.0808 29.1534 35.0183 28.9961 35.0183Z" fill="white"/>
<path d="M32.5341 22.1071L30.7975 23.8437L30.2692 23.3153C30.2141 23.2603 30.1488 23.2166 30.0768 23.1868C30.0049 23.157 29.9277 23.1417 29.8499 23.1417C29.772 23.1417 29.6949 23.157 29.6229 23.1868C29.551 23.2166 29.4856 23.2603 29.4305 23.3153C29.3755 23.3704 29.3318 23.4358 29.302 23.5077C29.2722 23.5797 29.2568 23.6568 29.2568 23.7347C29.2568 23.8126 29.2722 23.8897 29.302 23.9616C29.3318 24.0336 29.3755 24.099 29.4305 24.154L30.3782 25.1016C30.4333 25.1567 30.4987 25.2004 30.5706 25.2302C30.6426 25.26 30.7197 25.2754 30.7976 25.2754C30.8755 25.2754 30.9526 25.26 31.0245 25.2302C31.0965 25.2004 31.1618 25.1567 31.2169 25.1016L33.3731 22.9455C33.4843 22.8343 33.5468 22.6834 33.5468 22.5261C33.5468 22.3689 33.4843 22.218 33.3731 22.1068C33.2619 21.9956 33.111 21.9331 32.9537 21.9331C32.7965 21.9331 32.6456 21.9956 32.5344 22.1068L32.5341 22.1071Z" fill="white"/>
<path d="M32.5341 33.0564L30.7975 34.793L30.2692 34.2647C30.2141 34.2096 30.1488 34.1659 30.0768 34.1361C30.0049 34.1063 29.9277 34.091 29.8499 34.091C29.772 34.091 29.6949 34.1063 29.6229 34.1361C29.551 34.1659 29.4856 34.2096 29.4305 34.2647C29.3755 34.3197 29.3318 34.3851 29.302 34.4571C29.2722 34.529 29.2568 34.6061 29.2568 34.684C29.2568 34.7619 29.2722 34.839 29.302 34.9109C29.3318 34.9829 29.3755 35.0483 29.4305 35.1033L30.3782 36.051C30.4333 36.106 30.4987 36.1497 30.5706 36.1795C30.6426 36.2093 30.7197 36.2247 30.7976 36.2247C30.8755 36.2247 30.9526 36.2093 31.0245 36.1795C31.0965 36.1497 31.1618 36.106 31.2169 36.051L33.3731 33.8948C33.4843 33.7836 33.5468 33.6327 33.5468 33.4755C33.5468 33.3182 33.4843 33.1673 33.3731 33.0561C33.2619 32.9449 33.111 32.8824 32.9537 32.8824C32.7965 32.8824 32.6456 32.9449 32.5344 33.0561L32.5341 33.0564Z" fill="white"/>
<path d="M38.6179 22.8193H34.8933C34.736 22.8193 34.5852 22.8818 34.474 22.993C34.3628 23.1042 34.3003 23.2551 34.3003 23.4123C34.3003 23.5696 34.3628 23.7204 34.474 23.8317C34.5852 23.9429 34.736 24.0053 34.8933 24.0053H38.6179C38.7752 24.0053 38.926 23.9429 39.0372 23.8317C39.1484 23.7204 39.2109 23.5696 39.2109 23.4123C39.2109 23.2551 39.1484 23.1042 39.0372 22.993C38.926 22.8818 38.7752 22.8193 38.6179 22.8193Z" fill="white"/>
<path d="M38.6179 28.2411H34.8933C34.736 28.2411 34.5852 28.3036 34.474 28.4148C34.3628 28.526 34.3003 28.6768 34.3003 28.8341C34.3003 28.9914 34.3628 29.1422 34.474 29.2534C34.5852 29.3646 34.736 29.4271 34.8933 29.4271H38.6179C38.7752 29.4271 38.926 29.3646 39.0372 29.2534C39.1484 29.1422 39.2109 28.9914 39.2109 28.8341C39.2109 28.6768 39.1484 28.526 39.0372 28.4148C38.926 28.3036 38.7752 28.2411 38.6179 28.2411Z" fill="white"/>
<path d="M38.6179 33.6628H34.8933C34.736 33.6628 34.5852 33.7253 34.474 33.8365C34.3628 33.9477 34.3003 34.0986 34.3003 34.2558C34.3003 34.4131 34.3628 34.564 34.474 34.6752C34.5852 34.7864 34.736 34.8489 34.8933 34.8489H38.6179C38.7752 34.8489 38.926 34.7864 39.0372 34.6752C39.1484 34.564 39.2109 34.4131 39.2109 34.2558C39.2109 34.0986 39.1484 33.9477 39.0372 33.8365C38.926 33.7253 38.7752 33.6628 38.6179 33.6628Z" fill="white"/>
</svg>
