<svg width="24" height="18" viewBox="0 0 24 18" fill="none" xmlns="http://www.w3.org/2000/svg">
<path d="M19.4318 13.1779C19.3366 13.1779 19.2415 13.143 19.1672 13.0726L14.7142 8.89514C14.5586 8.74965 14.5509 8.50432 14.6971 8.34877C14.8434 8.19167 15.0872 8.18471 15.2443 8.33175L19.6973 12.5092C19.8528 12.6547 19.8606 12.9 19.7143 13.0556C19.6377 13.1369 19.5355 13.1779 19.4318 13.1779Z" fill="white"/>
<path d="M4.56751 13.1781C4.46458 13.1781 4.36165 13.1371 4.28504 13.0558C4.13877 12.9003 4.14651 12.6549 4.30206 12.5094L8.75659 8.33196C8.91292 8.18647 9.15825 8.19266 9.30374 8.34899C9.45 8.50454 9.44227 8.74987 9.28671 8.89536L4.83218 13.0728C4.75788 13.1433 4.6627 13.1781 4.56751 13.1781Z" fill="white"/>
<path d="M22.0653 17.062H1.93474C0.868309 17.062 0 16.1945 0 15.1273V1.93474C0 0.867535 0.868309 0 1.93474 0H22.0653C23.1317 0 24 0.867535 24 1.93474V15.1273C24 16.1945 23.1317 17.062 22.0653 17.062ZM1.93474 0.773894C1.29472 0.773894 0.773894 1.29472 0.773894 1.93474V15.1273C0.773894 15.7673 1.29472 16.2881 1.93474 16.2881H22.0653C22.7053 16.2881 23.2261 15.7673 23.2261 15.1273V1.93474C23.2261 1.29472 22.7053 0.773894 22.0653 0.773894H1.93474Z" fill="white"/>
<path d="M12.0002 10.4754C11.4856 10.4754 10.9709 10.3044 10.5794 9.96312L0.642557 1.29473C0.481587 1.15466 0.464561 0.910108 0.604636 0.748364C0.746259 0.587394 0.990035 0.57269 1.15101 0.711217L11.0878 9.37883C11.5823 9.80989 12.4181 9.80989 12.9119 9.37883L22.8363 0.725147C22.9965 0.585073 23.2403 0.60055 23.3827 0.762294C23.5227 0.924038 23.5065 1.16781 23.3455 1.30866L13.4211 9.96235C13.0287 10.3044 12.5149 10.4754 12.0002 10.4754Z" fill="white"/>
</svg>
