<svg width="36" height="39" viewBox="0 0 36 39" fill="none" xmlns="http://www.w3.org/2000/svg">
<path d="M4.5498 35.75C4.5498 35.9224 4.61829 36.0877 4.74019 36.2096C4.86208 36.3315 5.02741 36.4 5.1998 36.4H19.4998C19.6722 36.4 19.8375 36.3315 19.9594 36.2096C20.0813 36.0877 20.1498 35.9224 20.1498 35.75C20.1498 35.5776 20.0813 35.4123 19.9594 35.2904C19.8375 35.1685 19.6722 35.1 19.4998 35.1H5.1998C5.02741 35.1 4.86208 35.1685 4.74019 35.2904C4.61829 35.4123 4.5498 35.5776 4.5498 35.75Z" fill="white"/>
<path d="M31.1155 13.8924C31.2374 14.0143 31.4027 14.0828 31.5751 14.0828C31.7474 14.0828 31.9127 14.0143 32.0346 13.8924L34.333 11.594C34.8206 11.1064 35.0945 10.4451 35.0945 9.75552C35.0945 9.06594 34.8206 8.40461 34.333 7.917C33.8454 7.42939 33.1841 7.15546 32.4945 7.15546C31.8049 7.15546 31.1436 7.42939 30.656 7.917L28.3576 10.2154C28.2357 10.3373 28.1672 10.5026 28.1672 10.6749C28.1672 10.8473 28.2357 11.0126 28.3576 11.1345L24.7 14.792V3.25C24.699 2.38836 24.3562 1.56231 23.747 0.953043C23.1377 0.343773 22.3116 0.00103211 21.45 0H3.25C2.38836 0.00103211 1.56231 0.343773 0.953043 0.953043C0.343773 1.56231 0.00103211 2.38836 0 3.25V35.75C0.00103211 36.6116 0.343773 37.4377 0.953043 38.047C1.56231 38.6562 2.38836 38.999 3.25 39H21.45C22.3116 38.999 23.1377 38.6562 23.747 38.047C24.3562 37.4377 24.699 36.6116 24.7 35.75V20.3073L29.7369 15.2711L30.656 16.1902L27.4385 19.4077C27.3764 19.4677 27.3269 19.5394 27.2928 19.6187C27.2587 19.698 27.2408 19.7833 27.24 19.8696C27.2393 19.9559 27.2557 20.0415 27.2884 20.1214C27.3211 20.2013 27.3694 20.2738 27.4304 20.3349C27.4914 20.3959 27.564 20.4442 27.6439 20.4768C27.7238 20.5095 27.8094 20.526 27.8957 20.5252C27.982 20.5245 28.0673 20.5065 28.1466 20.4725C28.2259 20.4384 28.2976 20.3889 28.3576 20.3268L32.0346 16.6497C32.1565 16.5279 32.2249 16.3626 32.2249 16.1902C32.2249 16.0178 32.1565 15.8525 32.0346 15.7306L30.656 14.352L31.1155 13.8924ZM31.5751 8.8361C31.8189 8.59225 32.1496 8.45526 32.4945 8.45526C32.8393 8.45526 33.1701 8.59225 33.4139 8.8361C33.6577 9.07995 33.7947 9.41067 33.7947 9.75552C33.7947 10.1004 33.6577 10.4311 33.4139 10.6749L31.5751 12.5131L29.7369 10.6749L31.5751 8.8361ZM5.85 1.3H18.85V3.25C18.85 3.42239 18.7815 3.58772 18.6596 3.70962C18.5377 3.83152 18.3724 3.9 18.2 3.9H6.5C6.32761 3.9 6.16228 3.83152 6.04038 3.70962C5.91848 3.58772 5.85 3.42239 5.85 3.25V1.3ZM23.4 35.75C23.4 36.2672 23.1946 36.7632 22.8289 37.1289C22.4632 37.4946 21.9672 37.7 21.45 37.7H3.25C2.73283 37.7 2.23684 37.4946 1.87114 37.1289C1.50545 36.7632 1.3 36.2672 1.3 35.75V3.25C1.3 2.73283 1.50545 2.23684 1.87114 1.87114C2.23684 1.50545 2.73283 1.3 3.25 1.3H4.55V3.25C4.55 3.76717 4.75545 4.26316 5.12114 4.62886C5.48684 4.99455 5.98283 5.2 6.5 5.2H18.2C18.7172 5.2 19.2132 4.99455 19.5789 4.62886C19.9446 4.26316 20.15 3.76717 20.15 3.25V1.3H21.45C21.9672 1.3 22.4632 1.50545 22.8289 1.87114C23.1946 2.23684 23.4 2.73283 23.4 3.25V16.0927L15.0293 24.4634C14.9796 24.5126 14.9383 24.5697 14.9071 24.6324L13.0683 28.3095C13.0059 28.4316 12.9838 28.5703 13.0051 28.7058C13.0263 28.8413 13.0899 28.9666 13.1867 29.0637C13.2835 29.1609 13.4086 29.2249 13.544 29.2467C13.6794 29.2685 13.8182 29.2469 13.9406 29.185L17.615 27.3429C17.6777 27.3117 17.7348 27.2704 17.784 27.2207L23.4 21.6073V35.75ZM29.278 13.8918L16.9416 26.2275L15.1034 27.1466L16.0225 25.3084L29.2773 12.0536L30.1964 12.9727L29.278 13.8918Z" fill="white"/>
<path d="M4.5498 28.6H5.8498V29.9H4.5498V28.6Z" fill="white"/>
<path d="M7.1499 28.6H12.3499V29.9H7.1499V28.6Z" fill="white"/>
<path d="M4.5498 26H12.3498V27.3H4.5498V26Z" fill="white"/>
<path d="M15.5999 9.10001H3.8999V15.6H15.5999V9.10001ZM14.2999 14.3H5.1999V10.4H14.2999V14.3Z" fill="white"/>
<path d="M16.8999 9.10001H20.7999V10.4H16.8999V9.10001Z" fill="white"/>
<path d="M16.8999 11.7H20.7999V13H16.8999V11.7Z" fill="white"/>
<path d="M16.8999 14.3H20.7999V15.6H16.8999V14.3Z" fill="white"/>
<path d="M3.8999 16.9H5.1999V18.2H3.8999V16.9Z" fill="white"/>
<path d="M6.5 16.9H15.6V18.2H6.5V16.9Z" fill="white"/>
<path d="M7.7999 19.5H3.8999V23.4H7.7999V19.5ZM6.4999 22.1H5.1999V20.8H6.4999V22.1Z" fill="white"/>
<path d="M13.0001 19.5H9.1001V23.4H13.0001V19.5ZM11.7001 22.1H10.4001V20.8H11.7001V22.1Z" fill="white"/>
</svg>
