<svg width="37" height="39" viewBox="0 0 37 39" fill="none" xmlns="http://www.w3.org/2000/svg">
<path d="M36.2347 8.60524L18.5272 0.0567861C18.3702 -0.0189287 18.1874 -0.0189287 18.0305 0.0567861L0.322892 8.60524C0.125455 8.70053 0 8.90049 0 9.11971V29.8803C0 30.0995 0.125455 30.2994 0.322892 30.3947L18.0304 38.9432C18.1089 38.981 18.1939 39 18.2788 39C18.3637 39 18.4487 38.981 18.5272 38.9432L36.2347 30.3947C36.4321 30.2994 36.5576 30.0995 36.5576 29.8803V9.11978C36.5576 8.90041 36.4321 8.70061 36.2347 8.60524ZM18.2788 1.20569L34.6723 9.11971L29.9201 11.4138C29.89 11.3909 29.8583 11.3697 29.8234 11.3529L13.5413 3.49274L18.2788 1.20569ZM12.2511 4.13868L28.6207 12.0412L25.268 13.6598L8.90517 5.76045L12.2511 4.13868ZM29.0037 13.125V19.108L25.8721 20.6198V14.6368L29.0037 13.125ZM35.415 29.5218L18.8501 37.5185V18.0267L22.8013 16.1192C23.0855 15.982 23.2046 15.6405 23.0674 15.3563C22.9302 15.0723 22.5887 14.953 22.3046 15.0903L18.2788 17.0338L16.6947 16.269C16.4105 16.1317 16.069 16.251 15.9319 16.5351C15.7947 16.8192 15.9138 17.1608 16.1979 17.298L17.7075 18.0267V37.5185L1.14258 29.5216V10.0299L13.7566 16.1194C13.8367 16.1581 13.9213 16.1764 14.0046 16.1764C14.2169 16.1764 14.4209 16.0574 14.5194 15.8534C14.6566 15.5693 14.5375 15.2277 14.2533 15.0905L1.88533 9.11971L7.56051 6.37996L24.7216 14.6646C24.7241 14.6681 24.7269 14.6713 24.7295 14.6747V21.5301C24.7295 21.7267 24.8306 21.9094 24.9971 22.014C25.0895 22.072 25.195 22.1014 25.3008 22.1014C25.3855 22.1014 25.4705 22.0825 25.5492 22.0445L29.8234 19.9811C30.0208 19.8858 30.1463 19.686 30.1463 19.4667V12.5735L35.415 10.03V29.5218Z" fill="white"/>
<path d="M5.85739 27.306L3.25878 26.0516C2.97451 25.9142 2.63311 26.0335 2.49592 26.3176C2.35874 26.6017 2.47787 26.9433 2.76199 27.0805L5.36059 28.335C5.44065 28.3736 5.52528 28.3919 5.60853 28.3919C5.8209 28.3919 6.02489 28.2729 6.12338 28.0689C6.26064 27.7847 6.14151 27.4433 5.85739 27.306Z" fill="white"/>
<path d="M8.24923 25.7493L3.26264 23.342C2.97844 23.2048 2.63697 23.3239 2.49978 23.6081C2.36267 23.8923 2.4818 24.2338 2.76592 24.371L7.75251 26.7783C7.83257 26.8169 7.91719 26.8353 8.00045 26.8353C8.21282 26.8353 8.41681 26.7163 8.5153 26.5123C8.65248 26.228 8.53335 25.8864 8.24923 25.7493Z" fill="white"/>
</svg>
