<svg width="39" height="39" viewBox="0 0 39 39" fill="none" xmlns="http://www.w3.org/2000/svg">
<path d="M20.1289 39H38.9999V23.9032H20.1289V39ZM27.6773 25.1613H31.4515V26.4194H27.6773V25.1613ZM21.387 25.1613H26.4192V27.6774H32.7096V25.1613H37.7418V37.7419H21.387V25.1613Z" fill="white"/>
<path d="M35.2256 35.2258H36.4837V36.4839H35.2256V35.2258Z" fill="white"/>
<path d="M32.7095 35.2258H33.9675V36.4839H32.7095V35.2258Z" fill="white"/>
<path d="M30.1934 35.2258H31.4514V36.4839H30.1934V35.2258Z" fill="white"/>
<path d="M37.7419 12.5806H36.4839V0H20.129V12.5806H18.871V0H2.51613V12.5806H1.25806C0.564242 12.5806 0 13.1449 0 13.8387V15.0968C0 15.7906 0.564242 16.3548 1.25806 16.3548H4.56866C4.46424 16.758 4.40323 17.1776 4.40323 17.6129C4.40323 19.3616 5.30085 20.9034 6.65831 21.8054C2.80674 22.9943 0 26.586 0 30.8226C0 32.109 0.778113 33.2142 1.8871 33.701V39H18.871V30.8226C18.871 26.586 16.0642 22.9943 12.2127 21.8054C13.5701 20.9034 14.4677 19.3616 14.4677 17.6129C14.4677 17.1776 14.4067 16.758 14.3023 16.3548H37.7419C38.4358 16.3548 39 15.7906 39 15.0968V13.8387C39 13.1449 38.4358 12.5806 37.7419 12.5806ZM26.4194 1.25806H30.1935V2.51613H26.4194V1.25806ZM21.3871 1.25806H25.1613V3.77419H31.4516V1.25806H35.2258V12.5806H31.4516V10.0645H25.1613V12.5806H21.3871V1.25806ZM30.1935 12.5806H26.4194V11.3226H30.1935V12.5806ZM8.80645 1.25806H12.5806V2.51613H8.80645V1.25806ZM3.77419 1.25806H7.54839V3.77419H13.8387V1.25806H17.6129V12.5806H13.8387V10.0645H7.54839V12.5806H3.77419V1.25806ZM8.80645 12.5806V11.3226H12.5806V12.5806H8.80645ZM1.25806 15.0968V13.8387H6.11797C5.7091 14.1985 5.35935 14.6231 5.08384 15.0968H1.25806ZM3.14516 33.9677H5.66129V37.7419H3.14516V33.9677ZM9.12097 29.5645H6.91935V26.4194H11.3226V29.5645H14.4677V37.7419H6.91935V33.9677H9.12097C10.335 33.9677 11.3226 32.9802 11.3226 31.7661C11.3226 30.5521 10.335 29.5645 9.12097 29.5645ZM12.5806 27.3088L13.5783 28.3065H12.5806V27.3088ZM17.6129 30.8226V37.7419H15.7258V28.6751L12.212 25.1613H5.66129V29.5645H3.77419V30.8226H9.12097C9.64118 30.8226 10.0645 31.2459 10.0645 31.7661C10.0645 32.2863 9.64118 32.7097 9.12097 32.7097H3.14516C2.10474 32.7097 1.25806 31.863 1.25806 30.8226C1.25806 26.3137 4.92658 22.6452 9.43548 22.6452C13.9444 22.6452 17.6129 26.3137 17.6129 30.8226ZM9.43548 21.3871C7.35402 21.3871 5.66129 19.6944 5.66129 17.6129C5.66129 15.5314 7.35402 13.8387 9.43548 13.8387C11.517 13.8387 13.2097 15.5314 13.2097 17.6129C13.2097 19.6944 11.517 21.3871 9.43548 21.3871ZM37.7419 15.0968H13.7871C13.5122 14.6231 13.1619 14.1985 12.753 13.8387H37.7419V15.0968Z" fill="white"/>
<path d="M30.1934 32.7097H36.4837V33.9678H30.1934V32.7097Z" fill="white"/>
</svg>
