<svg width="74" height="77" viewBox="0 0 74 77" fill="none" xmlns="http://www.w3.org/2000/svg">
<path d="M19.2402 35.7242C23.7852 35.7242 27.4823 32.0272 27.4823 27.4836C27.4823 22.937 23.7852 19.24 19.2402 19.24C14.6951 19.24 10.998 22.937 10.998 27.4821C10.998 32.0272 14.6951 35.7242 19.2402 35.7242Z" fill="black"/>
<path d="M0 0V59.2V76.96H74V59.2V0H0ZM2.96 2.96H71.04V43.8716L54.2805 28.5078C53.9904 28.2428 53.6086 28.1111 53.2149 28.12C52.8227 28.1378 52.4527 28.3109 52.1878 28.601L39.8105 42.1563L45.4464 47.7922C46.025 48.3708 46.025 49.3062 45.4464 49.8849C45.1578 50.175 44.7789 50.32 44.4 50.32C44.0211 50.32 43.6422 50.175 43.3536 49.8864L37.6912 44.4784L30.6715 37.4588C30.118 36.9068 29.233 36.8786 28.6469 37.3937L3.87908 59.2H2.96V2.96ZM71.04 74H2.96V62.16H71.04V74Z" fill="black"/>
</svg>
