<svg width="32" height="39" viewBox="0 0 32 39" fill="none" xmlns="http://www.w3.org/2000/svg">
<path d="M8.427 7.81626C8.08979 7.81626 7.81634 8.08964 7.81634 8.42693C7.81634 9.1677 7.21367 9.77037 6.4729 9.77037C5.73213 9.77037 5.12946 9.1677 5.12946 8.42693C5.12946 7.68616 5.73213 7.08349 6.4729 7.08349C6.81011 7.08349 7.08357 6.81011 7.08357 6.47282C7.08357 6.13553 6.81019 5.86215 6.4729 5.86215C5.0587 5.86215 3.9082 7.01272 3.9082 8.42685C3.9082 9.84098 5.05877 10.9915 6.4729 10.9915C7.88702 10.9915 9.03759 9.84098 9.03759 8.42685C9.03767 8.08964 8.76421 7.81626 8.427 7.81626Z" fill="white"/>
<path d="M8.427 14.9811C8.08979 14.9811 7.81634 15.2545 7.81634 15.5918C7.81634 16.3325 7.21367 16.9352 6.4729 16.9352C5.73213 16.9352 5.12946 16.3325 5.12946 15.5918C5.12946 14.851 5.73213 14.2483 6.4729 14.2483C6.81011 14.2483 7.08357 13.975 7.08357 13.6377C7.08357 13.3004 6.81019 13.027 6.4729 13.027C5.0587 13.027 3.9082 14.1776 3.9082 15.5917C3.9082 17.0058 5.05877 18.1564 6.4729 18.1564C7.88702 18.1564 9.03759 17.0058 9.03759 15.5917C9.03767 15.2546 8.76421 14.9811 8.427 14.9811Z" fill="white"/>
<path d="M15.5915 16.2839H11.0321C10.6948 16.2839 10.4214 16.5573 10.4214 16.8945C10.4214 17.2318 10.6948 17.5052 11.0321 17.5052H15.5915C15.9287 17.5052 16.2022 17.2318 16.2022 16.8945C16.2022 16.5573 15.9288 16.2839 15.5915 16.2839Z" fill="white"/>
<path d="M15.5915 13.6784H11.0321C10.6948 13.6784 10.4214 13.9518 10.4214 14.2891C10.4214 14.6264 10.6948 14.8998 11.0321 14.8998H15.5915C15.9287 14.8998 16.2022 14.6264 16.2022 14.2891C16.2022 13.9518 15.9288 13.6784 15.5915 13.6784Z" fill="white"/>
<path d="M14.2888 23.4487H11.0321C10.6948 23.4487 10.4214 23.7221 10.4214 24.0594C10.4214 24.3967 10.6948 24.67 11.0321 24.67H14.2888C14.6261 24.67 14.8995 24.3967 14.8995 24.0594C14.8995 23.7221 14.6261 23.4487 14.2888 23.4487Z" fill="white"/>
<path d="M15.5915 20.8434H11.0321C10.6948 20.8434 10.4214 21.1167 10.4214 21.454C10.4214 21.7913 10.6948 22.0647 11.0321 22.0647H15.5915C15.9287 22.0647 16.2022 21.7913 16.2022 21.454C16.2022 21.1167 15.9288 20.8434 15.5915 20.8434Z" fill="white"/>
<path d="M21.4538 9.11893H11.0321C10.6948 9.11893 10.4214 9.39231 10.4214 9.72959C10.4214 10.0669 10.6948 10.3403 11.0321 10.3403H21.4537C21.7909 10.3403 22.0644 10.0669 22.0644 9.72959C22.0644 9.39231 21.791 9.11893 21.4538 9.11893Z" fill="white"/>
<path d="M18.8483 6.51352H11.0321C10.6948 6.51352 10.4214 6.7869 10.4214 7.12419C10.4214 7.46147 10.6948 7.73485 11.0321 7.73485H18.8483C19.1855 7.73485 19.459 7.46147 19.459 7.12419C19.459 6.7869 19.1856 6.51352 18.8483 6.51352Z" fill="white"/>
<path d="M8.427 22.146C8.08979 22.146 7.81634 22.4194 7.81634 22.7567C7.81634 23.4975 7.21367 24.1001 6.4729 24.1001C5.73213 24.1001 5.12946 23.4975 5.12946 22.7567C5.12946 22.0159 5.73213 21.4133 6.4729 21.4133C6.81011 21.4133 7.08357 21.1399 7.08357 20.8026C7.08357 20.4653 6.81019 20.1919 6.4729 20.1919C5.0587 20.1919 3.9082 21.3425 3.9082 22.7566C3.9082 24.1707 5.05877 25.3213 6.4729 25.3213C7.88702 25.3213 9.03759 24.1707 9.03759 22.7566C9.03767 22.4194 8.76421 22.146 8.427 22.146Z" fill="white"/>
<path d="M24.0594 0H1.91335C0.858377 0 0 0.858301 0 1.91335V29.2702C0 30.3253 0.858301 31.1836 1.91335 31.1836H12.9864C13.3236 31.1836 13.5971 30.9102 13.5971 30.5729C13.5971 30.2357 13.3237 29.9622 12.9864 29.9622H1.91335C1.53173 29.9622 1.22126 29.6518 1.22126 29.2701V1.91335C1.22126 1.53173 1.53173 1.22126 1.91335 1.22126H24.0594C24.441 1.22126 24.7515 1.53173 24.7515 1.91335V22.1054C24.7515 22.4427 25.0249 22.7161 25.3622 22.7161C25.6994 22.7161 25.9728 22.4427 25.9728 22.1054V1.91335C25.9727 0.858301 25.1144 0 24.0594 0Z" fill="white"/>
<path d="M29.8245 24.7629C29.257 24.7063 28.6897 24.8672 28.2407 25.2081C27.8831 24.608 27.2733 24.1823 26.5677 24.1116C26 24.0551 25.4328 24.2159 24.984 24.5567C24.6263 23.9566 24.0165 23.5309 23.3109 23.4602C22.8775 23.417 22.4447 23.5005 22.0644 23.694V15.9175C22.0644 15.2861 21.7958 14.6808 21.3273 14.257C20.8592 13.8334 20.2284 13.6267 19.5966 13.6899C18.4693 13.8028 17.5863 14.8221 17.5863 16.0104V23.8066L15.7913 25.6016C14.8374 26.5555 14.4523 27.909 14.7614 29.2222L16.1241 35.014C16.6763 37.3609 18.7458 39 21.1568 39H26.6645C29.5153 39 31.8347 36.6807 31.8347 33.8299V27.0836C31.8347 25.8951 30.9518 24.8758 29.8245 24.7629ZM30.6134 33.8297C30.6134 36.0071 28.842 37.7785 26.6646 37.7785H21.1569C19.3154 37.7785 17.7347 36.5266 17.313 34.7341L15.9502 28.9422C15.7387 28.0438 16.0022 27.1177 16.6548 26.465L17.5863 25.5335V27.6418C17.5863 27.979 17.8597 28.2525 18.197 28.2525C18.5343 28.2525 18.8077 27.9791 18.8077 27.6418V16.0103C18.8077 15.4417 19.2076 14.9562 19.7184 14.9052C20.0117 14.8757 20.2922 14.9673 20.508 15.1626C20.721 15.3553 20.8432 15.6306 20.8432 15.9176V26.6649C20.8432 27.0021 21.1166 27.2756 21.4539 27.2756C21.7912 27.2756 22.0645 27.0022 22.0645 26.6649V25.6879C22.0645 25.4009 22.1866 25.1256 22.3998 24.9329C22.6156 24.7376 22.896 24.6459 23.1894 24.6755C23.7 24.7266 24.1001 25.2121 24.1001 25.7807V27.3161C24.1001 27.6533 24.3734 27.9268 24.7107 27.9268C25.0479 27.9268 25.3214 27.6534 25.3214 27.3161V26.3391C25.3214 26.052 25.4435 25.7768 25.6566 25.584C25.8725 25.3887 26.153 25.2972 26.4462 25.3267C26.9569 25.3778 27.3569 25.8633 27.3569 26.4319V27.9674C27.3569 28.3046 27.6303 28.578 27.9676 28.578C28.3048 28.578 28.5783 28.3047 28.5783 27.9674V26.9903C28.5783 26.7033 28.7004 26.4281 28.9135 26.2353C29.1294 26.0401 29.4096 25.9484 29.7031 25.978C30.2137 26.029 30.6138 26.5146 30.6138 27.0832V33.8297H30.6134Z" fill="white"/>
</svg>
