<svg width="18" height="21" viewBox="0 0 18 21" fill="none" xmlns="http://www.w3.org/2000/svg">
<path d="M17.4383 17.7127L15.935 15.2084C15.242 14.0525 14.8754 12.7295 14.8754 11.3812V9.18752C14.8754 5.81091 12.127 3.06253 8.75038 3.06253C5.37377 3.06253 2.6254 5.81091 2.6254 9.18752V11.3812C2.6254 12.7295 2.25876 14.0525 1.56576 15.2084L0.0624932 17.7127C-0.0188818 17.8474 -0.0206454 18.0163 0.056382 18.1528C0.134271 18.2902 0.280368 18.3751 0.437868 18.3751H17.0629C17.2204 18.3751 17.3665 18.2902 17.4443 18.1528C17.5214 18.0163 17.5196 17.8474 17.4383 17.7127ZM1.21052 17.5L2.31565 15.6581C3.09088 14.3666 3.50038 12.8879 3.50038 11.3812V9.18752C3.50038 6.29214 5.85501 3.93752 8.75038 3.93752C11.6458 3.93752 14.0004 6.29214 14.0004 9.18752V11.3812C14.0004 12.8879 14.4099 14.3666 15.1843 15.6581L16.2902 17.5H1.21052Z" fill="white"/>
<path d="M8.75051 0C7.78537 0 7.00049 0.784875 7.00049 1.75001V3.50003C7.00049 3.74149 7.1965 3.9375 7.438 3.9375C7.6795 3.9375 7.87552 3.74149 7.87552 3.49999V1.75001C7.87552 1.26701 8.26751 0.875027 8.75051 0.875027C9.23351 0.875027 9.6255 1.26701 9.6255 1.75001V3.50003C9.6255 3.74149 9.82151 3.9375 10.063 3.9375C10.3045 3.9375 10.5005 3.74149 10.5005 3.49999V1.75001C10.5005 0.784875 9.71565 0 8.75051 0Z" fill="white"/>
<path d="M10.644 17.7161C10.5206 17.5079 10.2537 17.4396 10.0446 17.5595C9.83549 17.682 9.76552 17.9506 9.88799 18.1589C10.0017 18.3522 10.0639 18.5841 10.0639 18.8125C10.0639 19.5361 9.47501 20.125 8.75137 20.125C8.02773 20.125 7.43887 19.5361 7.43887 18.8125C7.43887 18.5841 7.50101 18.3522 7.61475 18.1589C7.73636 17.9497 7.66639 17.682 7.45811 17.5595C7.24725 17.4396 6.98122 17.5079 6.85875 17.7161C6.66536 18.0469 6.56299 18.4257 6.56299 18.8125C6.56303 20.0191 7.54387 21 8.75051 21C9.95715 21 10.938 20.0191 10.9398 18.8125C10.9398 18.4257 10.8374 18.0469 10.644 17.7161Z" fill="white"/>
</svg>
