<svg width="15" height="15" viewBox="0 0 15 15" fill="none" xmlns="http://www.w3.org/2000/svg">
<path d="M12.7451 4.76244C12.745 4.76244 12.7448 4.76244 12.7446 4.76244H0.214762C0.0962921 4.76231 0.000125421 4.85823 1.22622e-07 4.9767C1.22622e-07 4.97685 1.22622e-07 4.97704 1.22622e-07 4.9772V10.9915C-0.000125176 11.11 0.0957909 11.2062 0.214261 11.2063C0.214417 11.2063 0.214605 11.2063 0.214762 11.2063H8.73507C8.85366 11.2063 8.94983 11.1101 8.94983 10.9915C8.94983 10.8729 8.85366 10.7768 8.73507 10.7768H0.429524V5.19196H12.5299V5.72899C12.5297 5.84746 12.6257 5.94363 12.7441 5.94375C12.7443 5.94375 12.7445 5.94375 12.7446 5.94375C12.8631 5.94388 12.9593 5.84796 12.9594 5.72949C12.9594 5.72933 12.9594 5.72915 12.9594 5.72899V4.9772C12.9595 4.85873 12.8636 4.76259 12.7451 4.76244Z" fill="#C61C1D"/>
<path d="M11.2881 3.7653L1.2642 1.50993C1.20857 1.49749 1.15027 1.50758 1.10206 1.53799C1.05392 1.56866 1.01987 1.61712 1.00734 1.67281L0.506141 3.92818C0.480392 4.04402 0.553441 4.1588 0.66928 4.18454C0.785118 4.21029 0.899892 4.13724 0.925641 4.02141L1.37997 1.97629L11.1939 4.18429C11.2094 4.1879 11.2253 4.18968 11.2412 4.18956C11.3598 4.18934 11.4558 4.09301 11.4556 3.97442C11.4554 3.87415 11.3859 3.78738 11.2881 3.7653Z" fill="#C61C1D"/>
<path d="M10.0711 2.5226L4.05673 0.0166314C3.9522 -0.0269412 3.83176 0.0178218 3.78108 0.119126L3.27988 1.12151C3.22328 1.2262 3.26225 1.35698 3.36697 1.41359C3.47165 1.47019 3.60243 1.43122 3.65904 1.3265C3.66126 1.3224 3.66336 1.3182 3.6653 1.31394V1.31444L4.07653 0.491482L9.90517 2.92002C10.0149 2.96582 10.141 2.91401 10.1868 2.80424C10.2326 2.69455 10.1808 2.56843 10.0711 2.5226Z" fill="#C61C1D"/>
<path d="M10.2228 5.76482H8.2338C8.11521 5.76482 8.01904 5.86098 8.01904 5.97958C8.01904 6.09817 8.11521 6.19434 8.2338 6.19434H10.2228C10.3414 6.19434 10.4375 6.09817 10.4375 5.97958C10.4375 5.86098 10.3414 5.76482 10.2228 5.76482Z" fill="#C61C1D"/>
<path d="M6.22918 5.7791C5.01125 5.7791 4.02393 6.76642 4.02393 7.98435C4.02518 9.20175 5.01178 10.1884 6.22918 10.1896C7.44712 10.1896 8.43444 9.20229 8.43444 7.98435C8.43444 6.76642 7.44712 5.7791 6.22918 5.7791ZM6.22918 9.78865C5.23268 9.78865 4.42488 8.98085 4.42488 7.98435C4.42598 6.98832 5.23315 6.18115 6.22918 6.18005C7.22568 6.18005 8.03348 6.98785 8.03348 7.98435C8.03348 8.98085 7.22568 9.78865 6.22918 9.78865Z" fill="#C61C1D"/>
<path d="M12.2434 6.48077C10.9152 6.48077 9.48682 6.79452 9.48682 7.48316V13.4975C9.48682 14.1861 10.9152 14.4999 12.2434 14.4999C13.5716 14.4999 15 14.1861 15 13.4975V7.48316C15 6.79452 13.5716 6.48077 12.2434 6.48077ZM14.4988 13.4937C14.4609 13.6328 13.7094 13.9987 12.2434 13.9987C10.7774 13.9987 10.0259 13.6328 9.98801 13.4975V13.1036C10.5213 13.3722 11.4021 13.4975 12.2434 13.4975C13.0846 13.4975 13.9657 13.3709 14.4988 13.1033V13.4937ZM14.4988 12.4913C14.4609 12.6304 13.7094 12.9963 12.2434 12.9963C10.7774 12.9963 10.0259 12.6304 9.98801 12.4951V12.1012C10.5213 12.3698 11.4021 12.4951 12.2434 12.4951C13.0846 12.4951 13.9657 12.3686 14.4988 12.1009V12.4913ZM14.4988 11.489C14.4609 11.628 13.7094 11.9939 12.2434 11.9939C10.7774 11.9939 10.0259 11.628 9.98801 11.4927V11.0988C10.5213 11.3674 11.4021 11.4927 12.2434 11.4927C13.0846 11.4927 13.9657 11.3662 14.4988 11.0985V11.489ZM14.4988 10.4866C14.4609 10.6257 13.7094 10.9915 12.2434 10.9915C10.7774 10.9915 10.0259 10.6257 9.98801 10.4903V10.0964C10.5213 10.365 11.4021 10.4903 12.2434 10.4903C13.0846 10.4903 13.9657 10.3638 14.4988 10.0961V10.4866ZM14.4988 9.48418C14.4609 9.62326 13.7094 9.98914 12.2434 9.98914C10.7774 9.98914 10.0259 9.62326 9.98801 9.48794V9.094C10.5213 9.36139 11.4021 9.48794 12.2434 9.48794C13.0846 9.48794 13.9657 9.36139 14.4988 9.09375V9.48418ZM14.4988 8.48179C14.4609 8.62087 13.7094 8.98675 12.2434 8.98675C10.7774 8.98675 10.0259 8.62087 9.98801 8.48555V8.09161C10.5213 8.359 11.4021 8.48555 12.2434 8.48555C13.0846 8.48555 13.9657 8.359 14.4988 8.09136V8.48179ZM12.2434 7.98436C10.7796 7.98436 10.0284 7.61949 9.98801 7.48767V7.48617C10.0284 7.34659 10.7796 6.98197 12.2434 6.98197C13.6969 6.98197 14.4486 7.34132 14.4988 7.48316C14.4486 7.625 13.6969 7.98436 12.2434 7.98436Z" fill="#C61C1D"/>
<path d="M4.22414 9.77412H2.32987L1.43173 8.79178V7.1629L2.42359 6.19434H4.22414C4.34273 6.19434 4.4389 6.09817 4.4389 5.97958C4.4389 5.86098 4.34273 5.76482 4.22414 5.76482H2.33638C2.28025 5.76469 2.22628 5.78656 2.18603 5.82571L1.06661 6.91756C1.02479 6.96643 1.00186 7.02867 1.00195 7.09298V8.87523C1.00195 8.92883 1.02197 8.98048 1.05809 9.02008L2.07626 10.1337C2.11696 10.1783 2.17453 10.2037 2.23489 10.2036H4.22414C4.34273 10.2036 4.4389 10.1075 4.4389 9.98888C4.4389 9.87029 4.34276 9.77412 4.22414 9.77412Z" fill="#C61C1D"/>
<path d="M6.35463 7.73376H6.10403C6.0261 7.73376 5.97873 7.69016 5.97873 7.67112C5.97873 7.65207 6.0261 7.60847 6.10403 7.60847H6.73053C6.86892 7.60847 6.98112 7.49626 6.98112 7.35787C6.98112 7.21948 6.86892 7.10727 6.73053 7.10727H6.47993C6.47993 6.96888 6.36772 6.85667 6.22933 6.85667C6.09094 6.85667 5.97873 6.96888 5.97873 7.10727V7.11855C5.70079 7.1578 5.49023 7.38944 5.47754 7.66986C5.49549 7.99843 5.77534 8.25087 6.10403 8.23496H6.35463C6.43257 8.23496 6.47993 8.27856 6.47993 8.29761C6.47993 8.31665 6.43257 8.36026 6.35463 8.36026H5.72814C5.58974 8.36026 5.47754 8.47246 5.47754 8.61085C5.47754 8.74925 5.58974 8.86145 5.72814 8.86145H5.97873C5.97873 8.99984 6.09094 9.11205 6.22933 9.11205C6.36772 9.11205 6.47993 8.99984 6.47993 8.86145V8.85018C6.75787 8.81093 6.96844 8.57928 6.98112 8.29886C6.96317 7.9703 6.68332 7.71785 6.35463 7.73376Z" fill="#C61C1D"/>
</svg>
