<svg width="31" height="25" viewBox="0 0 31 25" fill="none" xmlns="http://www.w3.org/2000/svg">
<path d="M24.8073 9.35219L24.4101 10.0528C24.2648 10.3125 23.9548 10.4202 23.6787 10.3174C23.107 10.1018 22.5839 9.79313 22.1237 9.40608C21.9009 9.21991 21.8427 8.89165 21.9881 8.63689L22.3853 7.93629C22.051 7.54434 21.7894 7.0887 21.6151 6.59387H20.8158C20.5251 6.59387 20.2732 6.3832 20.2248 6.08924C20.1279 5.50133 20.1231 4.88401 20.2248 4.2716C20.2732 3.97764 20.5251 3.76207 20.8158 3.76207H21.6151C21.7894 3.26724 22.051 2.8116 22.3853 2.41966L21.9881 1.71905C21.8427 1.46429 21.896 1.13603 22.1237 0.949861C22.5839 0.562815 23.1119 0.254158 23.6787 0.0385879C23.9548 -0.0642978 24.2648 0.0434872 24.4101 0.303151L24.8073 1.00375C25.316 0.910666 25.8343 0.910666 26.3429 1.00375L26.7402 0.303151C26.8855 0.0434872 27.1955 -0.0642978 27.4716 0.0385879C28.0432 0.254158 28.5664 0.562815 29.0266 0.949861C29.2494 1.13603 29.3076 1.46429 29.1622 1.71905L28.765 2.41966C29.0993 2.8116 29.3608 3.26724 29.5352 3.76207H30.3345C30.6252 3.76207 30.8771 3.97274 30.9255 4.2667C31.0224 4.85462 31.0272 5.47193 30.9255 6.08434C30.8771 6.3783 30.6252 6.59387 30.3345 6.59387H29.5352C29.3608 7.0887 29.0993 7.54434 28.765 7.93629L29.1622 8.63689C29.3076 8.89165 29.2543 9.21991 29.0266 9.40608C28.5664 9.79313 28.0384 10.1018 27.4716 10.3174C27.1955 10.4202 26.8855 10.3125 26.7402 10.0528L26.3429 9.35219C25.8391 9.44528 25.316 9.44528 24.8073 9.35219ZM24.2987 6.47139C26.1637 7.92159 28.2903 5.77079 26.8564 3.88455C24.9914 2.42945 22.8648 4.58515 24.2987 6.47139ZM18.7134 14.0114L20.3459 14.8345C20.8351 15.1187 21.0483 15.7213 20.8545 16.2602C20.4234 17.4459 19.5757 18.5335 18.7909 19.484C18.4324 19.92 17.8124 20.0278 17.3231 19.7436L15.9135 18.9206C15.1384 19.5918 14.2374 20.1258 13.2541 20.4736V22.1198C13.2541 22.6881 12.852 23.1781 12.2998 23.276C11.1081 23.4818 9.8583 23.4916 8.62304 23.276C8.06596 23.1781 7.65421 22.693 7.65421 22.1198V20.4736C6.67085 20.1209 5.76984 19.5918 4.99477 18.9206L3.58513 19.7387C3.10071 20.0229 2.47582 19.9151 2.11735 19.4791C1.3326 18.5286 0.504246 17.441 0.0731171 16.2602C-0.120649 15.7262 0.0924937 15.1236 0.581753 14.8345L2.19485 14.0114C2.00593 12.9875 2.00593 11.9341 2.19485 10.9053L0.581753 10.0773C0.0924937 9.79313 -0.125493 9.19051 0.0731171 8.65649C0.504246 7.47085 1.3326 6.3832 2.11735 5.43274C2.47582 4.9967 3.09587 4.88891 3.58513 5.17307L4.99477 5.99616C5.76984 5.32495 6.67085 4.79093 7.65421 4.44307V2.792C7.65421 2.22858 8.05143 1.73865 8.60367 1.64066C9.79533 1.43489 11.05 1.42509 12.2852 1.63577C12.8423 1.73375 13.2541 2.21878 13.2541 2.792V4.43817C14.2374 4.79093 15.1384 5.32005 15.9135 5.99126L17.3231 5.16817C17.8076 4.88401 18.4324 4.9918 18.7909 5.42784C19.5757 6.3783 20.3992 7.46595 20.8303 8.65159C21.0241 9.18561 20.8351 9.78823 20.3459 10.0773L18.7134 10.9004C18.9023 11.9292 18.9023 12.9826 18.7134 14.0114ZM13.0167 15.0452C15.8844 11.2727 11.6264 6.96622 7.89642 9.86662C5.02868 13.6391 9.28669 17.9456 13.0167 15.0452ZM24.8073 23.9962L24.4101 24.6968C24.2648 24.9565 23.9548 25.0643 23.6787 24.9614C23.107 24.7458 22.5839 24.4372 22.1237 24.0501C21.9009 23.864 21.8427 23.5357 21.9881 23.2809L22.3853 22.5803C22.051 22.1884 21.7894 21.7328 21.6151 21.2379H20.8158C20.5251 21.2379 20.2732 21.0273 20.2248 20.7333C20.1279 20.1454 20.1231 19.5281 20.2248 18.9157C20.2732 18.6217 20.5251 18.4061 20.8158 18.4061H21.6151C21.7894 17.9113 22.051 17.4557 22.3853 17.0637L21.9881 16.3631C21.8427 16.1083 21.896 15.7801 22.1237 15.5939C22.5839 15.2069 23.1119 14.8982 23.6787 14.6826C23.9548 14.5798 24.2648 14.6875 24.4101 14.9472L24.8073 15.6478C25.316 15.5547 25.8343 15.5547 26.3429 15.6478L26.7402 14.9472C26.8855 14.6875 27.1955 14.5798 27.4716 14.6826C28.0432 14.8982 28.5664 15.2069 29.0266 15.5939C29.2494 15.7801 29.3076 16.1083 29.1622 16.3631L28.765 17.0637C29.0993 17.4557 29.3608 17.9113 29.5352 18.4061H30.3345C30.6252 18.4061 30.8771 18.6168 30.9255 18.9108C31.0224 19.4987 31.0272 20.116 30.9255 20.7284C30.8771 21.0224 30.6252 21.2379 30.3345 21.2379H29.5352C29.3608 21.7328 29.0993 22.1884 28.765 22.5803L29.1622 23.2809C29.3076 23.5357 29.2543 23.864 29.0266 24.0501C28.5664 24.4372 28.0384 24.7458 27.4716 24.9614C27.1955 25.0643 26.8855 24.9565 26.7402 24.6968L26.3429 23.9962C25.8391 24.0893 25.316 24.0893 24.8073 23.9962ZM24.2987 21.1105C26.1637 22.5607 28.2903 20.4099 26.8564 18.5237C24.9914 17.0735 22.8648 19.2243 24.2987 21.1105Z" fill="#FA282E"/>
</svg>
