<svg width="15" height="11" viewBox="0 0 15 11" fill="none" xmlns="http://www.w3.org/2000/svg">
<path d="M13.5938 0H1.40625C0.62959 0 0 0.615599 0 1.375V9.625C0 10.3844 0.62959 11 1.40625 11H13.5938C14.3704 11 15 10.3844 15 9.625V1.375C15 0.615599 14.3704 0 13.5938 0ZM13.5938 1.375V2.54389C12.9369 3.06694 11.8896 3.88025 9.65077 5.59439C9.15738 5.97386 8.18004 6.88551 7.5 6.87489C6.82008 6.88563 5.84241 5.97372 5.34923 5.59439C3.11074 3.88051 2.06323 3.06702 1.40625 2.54389V1.375H13.5938ZM1.40625 9.625V4.30828C2.07756 4.83109 3.02956 5.56474 4.48061 6.67574C5.12095 7.16859 6.24234 8.25659 7.5 8.24997C8.75147 8.25659 9.85866 7.18438 10.5191 6.67597C11.9701 5.565 12.9224 4.83115 13.5938 4.3083V9.625H1.40625Z" fill="white"/>
</svg>
