<svg width="13" height="13" viewBox="0 0 13 13" fill="none" xmlns="http://www.w3.org/2000/svg">
<path d="M12.6647 10.953H12.4287V0.769613C12.4287 0.5844 12.2786 0.434326 12.0934 0.434326C11.9082 0.434326 11.7581 0.5844 11.7581 0.769613V1.71036H7.17312V1.5051C7.17312 1.12609 6.86479 0.81776 6.48578 0.81776H6.44019C6.06118 0.81776 5.75285 1.12609 5.75285 1.5051V1.71036H5.02688V1.5051C5.02688 1.12609 4.71855 0.81776 4.33955 0.81776H4.29388C3.91487 0.81776 3.60654 1.12609 3.60654 1.5051V1.71036H3.34998V1.5051C3.34998 1.12609 3.04165 0.81776 2.66265 0.81776H2.61698C2.23797 0.81776 1.92964 1.12609 1.92964 1.5051V1.71036H1.24183V0.769613C1.24183 0.5844 1.09176 0.434326 0.906548 0.434326C0.721336 0.434326 0.571261 0.5844 0.571261 0.769613V10.953H0.335287C0.150074 10.953 0 11.1031 0 11.2883V12.2302C0 12.4155 0.150074 12.5655 0.335287 12.5655H12.6647C12.8499 12.5655 13 12.4155 13 12.2302V11.2883C13 11.1031 12.8499 10.953 12.6647 10.953ZM2.61698 3.27353H2.66265C3.04165 3.27353 3.34998 2.9652 3.34998 2.5862V2.38093H3.60654V2.5862C3.60654 2.9652 3.91487 3.27353 4.29388 3.27353H4.33955C4.71855 3.27353 5.02688 2.9652 5.02688 2.5862V2.38093H5.75285V2.5862C5.75285 2.9652 6.06118 3.27353 6.44019 3.27353H6.48585C6.86486 3.27353 7.17319 2.9652 7.17319 2.5862V2.38093H11.7582V4.50363H10.9979V4.29837C10.9979 3.91936 10.6895 3.61103 10.3105 3.61103H10.2649C9.88586 3.61103 9.57753 3.91936 9.57753 4.29837V4.50363H8.97039V4.29837C8.97039 3.91936 8.66206 3.61103 8.28305 3.61103H8.23739C7.85838 3.61103 7.55005 3.91936 7.55005 4.29837V4.50363H1.24183V2.38093H1.92971V2.5862C1.92964 2.9652 2.23797 3.27353 2.61698 3.27353ZM8.28305 6.80672H8.23739C7.85838 6.80672 7.55005 7.11505 7.55005 7.49405V7.69932H6.30144V7.49405C6.30144 7.11505 5.99311 6.80672 5.61411 6.80672H5.56844C5.18943 6.80672 4.8811 7.11505 4.8811 7.49405V7.69932H4.62454V7.49405C4.62454 7.11505 4.31621 6.80672 3.9372 6.80672H3.89154C3.51253 6.80672 3.2042 7.11505 3.2042 7.49405V7.69932H3.0147V7.49405C3.0147 7.11505 2.70637 6.80672 2.32736 6.80672H2.28169C1.90268 6.80672 1.59435 7.11505 1.59435 7.49405V7.69932H1.24177V5.17427H7.55005V5.37954C7.55005 5.75854 7.85838 6.06687 8.23739 6.06687H8.28305C8.66206 6.06687 8.97039 5.75854 8.97039 5.37954V5.17427H9.57753V5.37954C9.57753 5.75854 9.88586 6.06687 10.2649 6.06687H10.3105C10.6895 6.06687 10.9979 5.75854 10.9979 5.37954V5.17427H11.7582V7.69932H8.97046V7.49405C8.97039 7.11505 8.66213 6.80672 8.28305 6.80672ZM1.24183 8.36989H1.59442V8.57515C1.59442 8.95416 1.90275 9.26249 2.28176 9.26249H2.32743C2.70643 9.26249 3.01476 8.95416 3.01476 8.57515V8.36989H3.20427V8.57515C3.20427 8.95416 3.5126 9.26249 3.8916 9.26249H3.93727C4.31628 9.26249 4.62461 8.95416 4.62461 8.57515V8.36989H4.88117V8.57515C4.88117 8.95416 5.1895 9.26249 5.56851 9.26249H5.61417C5.99318 9.26249 6.30151 8.95416 6.30151 8.57515V8.36989H7.55018V8.57515C7.55018 8.95416 7.85851 9.26249 8.23752 9.26249H8.28319C8.6622 9.26249 8.97053 8.95416 8.97053 8.57515V8.36989H11.7582V10.953H1.24183V8.36989Z" fill="black"/>
</svg>
