<svg width="13" height="13" viewBox="0 0 13 13" fill="none" xmlns="http://www.w3.org/2000/svg">
<path d="M12.0221 3.52723L12.0217 3.51711C12.0161 3.39224 12.0123 3.26013 12.01 3.11314C11.9994 2.39636 11.4296 1.80345 10.7127 1.76338C9.21806 1.67997 8.0618 1.19259 7.07385 0.229631L7.06542 0.221597C6.74317 -0.0738657 6.25708 -0.0738657 5.93474 0.221597L5.92631 0.229631C4.93836 1.19259 3.7821 1.67997 2.28743 1.76348C1.57064 1.80345 1.00074 2.39636 0.990131 3.11324C0.987948 3.25924 0.98408 3.39135 0.978427 3.51711L0.977832 3.54062C0.948772 5.06475 0.912669 6.9616 1.54724 8.6833C1.89616 9.63009 2.4246 10.4531 3.11778 11.1296C3.90727 11.9001 4.94134 12.5117 6.19123 12.9475C6.23189 12.9617 6.27414 12.9732 6.31719 12.9818C6.37789 12.9939 6.43898 13 6.50008 13C6.56118 13 6.62237 12.9939 6.68297 12.9818C6.72602 12.9732 6.76856 12.9616 6.80943 12.9473C8.05783 12.5107 9.09081 11.8988 9.8796 11.1284C10.5725 10.4517 11.1009 9.6285 11.4501 8.68151C12.0871 6.95466 12.0511 5.05423 12.0221 3.52723ZM10.7345 8.41759C10.0652 10.2322 8.69894 11.4784 6.5577 12.2273C6.55007 12.2298 6.54193 12.2321 6.5335 12.2338C6.51139 12.2382 6.48887 12.2382 6.46646 12.2337C6.45813 12.232 6.44999 12.2298 6.44245 12.2273C4.29894 11.4798 2.93181 10.2343 2.26303 8.41957C1.67816 6.83256 1.71128 5.09133 1.74054 3.5552L1.74074 3.54667C1.74669 3.41466 1.75066 3.2764 1.75284 3.12445C1.7576 2.80618 2.01111 2.54285 2.32998 2.5251C3.1758 2.47789 3.91887 2.31443 4.60164 2.02542C5.28351 1.7368 5.88912 1.32995 6.45287 0.781677C6.48153 0.757477 6.51873 0.757377 6.54729 0.781677C7.11114 1.32995 7.71674 1.7368 8.39852 2.02542C9.08129 2.31443 9.82436 2.47789 10.6703 2.5251C10.9891 2.54285 11.2427 2.80618 11.2473 3.12455C11.2496 3.27729 11.2536 3.41555 11.2595 3.54667C11.2887 5.08458 11.321 6.82721 10.7345 8.41759Z" fill="black"/>
</svg>
