<svg width="13" height="13" viewBox="0 0 13 13" fill="none" xmlns="http://www.w3.org/2000/svg">
<g clip-path="url(#clip0_64_2263)">
<rect width="13" height="13" fill="white"/>
<path d="M12.4855 2.86842L6.58296 0.0189287C6.53063 -0.00630957 6.4697 -0.00630957 6.41739 0.0189287L0.514857 2.86842C0.449045 2.90018 0.407227 2.96683 0.407227 3.03991V9.96009C0.407227 10.0332 0.449045 10.0998 0.514857 10.1316L6.41737 12.9811C6.44352 12.9937 6.47185 13 6.50016 13C6.52847 13 6.55678 12.9937 6.58296 12.9811L12.4855 10.1316C12.5513 10.0998 12.5931 10.0332 12.5931 9.96009V3.03993C12.5931 2.96681 12.5513 2.90021 12.4855 2.86842ZM6.50016 0.401895L11.9647 3.03991L10.3806 3.80462C10.3706 3.79698 10.36 3.78992 10.3484 3.78431L4.92099 1.16425L6.50016 0.401895ZM4.49093 1.37956L9.94747 4.01374L8.82991 4.55326L3.37562 1.92015L4.49093 1.37956ZM10.0751 4.375V6.36933L9.03125 6.87328V4.87895L10.0751 4.375ZM12.2122 9.84061L6.69059 12.5062V6.00891L8.00768 5.37308C8.10239 5.32735 8.1421 5.21352 8.09637 5.11879C8.05064 5.02411 7.93682 4.98434 7.84208 5.0301L6.50016 5.67794L5.97214 5.42302C5.87741 5.37724 5.76358 5.417 5.71785 5.51171C5.67212 5.60642 5.71184 5.72027 5.80654 5.766L6.30973 6.00891V12.5062L0.788086 9.84056V3.3433L4.99277 5.37315C5.01946 5.38605 5.04767 5.39214 5.07542 5.39214C5.14621 5.39214 5.21421 5.35248 5.24704 5.28446C5.29276 5.18975 5.25305 5.0759 5.15835 5.03017L1.03567 3.03991L2.9274 2.12666L8.64775 4.88822C8.64859 4.88938 8.64953 4.89042 8.65039 4.89157V7.1767C8.65039 7.24223 8.68409 7.30314 8.73959 7.338C8.77042 7.35735 8.80558 7.36713 8.84085 7.36713C8.86908 7.36713 8.89739 7.36086 8.92362 7.34819L10.3484 6.66038C10.4142 6.62862 10.456 6.56199 10.456 6.48889V4.19117L12.2122 3.34332V9.84061Z" fill="black"/>
<path d="M2.36018 9.10195L1.49398 8.6838C1.39922 8.63802 1.28542 8.67778 1.23969 8.77249C1.19396 8.8672 1.23367 8.98105 1.32838 9.02677L2.19458 9.44493C2.22127 9.45782 2.24948 9.46392 2.27723 9.46392C2.34802 9.46392 2.41601 9.42426 2.44884 9.35624C2.4946 9.26151 2.45489 9.14771 2.36018 9.10195Z" fill="black"/>
<path d="M3.15713 8.58315L1.49494 7.7807C1.4002 7.73498 1.28638 7.77469 1.24065 7.86942C1.19495 7.96413 1.23466 8.07798 1.32936 8.12371L2.99156 8.92615C3.01825 8.93903 3.04646 8.94515 3.07421 8.94515C3.145 8.94515 3.21299 8.90549 3.24582 8.83747C3.29155 8.74271 3.25184 8.62886 3.15713 8.58315Z" fill="black"/>
</g>
<defs>
<clipPath id="clip0_64_2263">
<rect width="13" height="13" fill="white"/>
</clipPath>
</defs>
</svg>
