<svg width="13" height="13" viewBox="0 0 13 13" fill="none" xmlns="http://www.w3.org/2000/svg">
<g clip-path="url(#clip0_64_2288)">
<rect width="13" height="13" fill="white"/>
<path d="M8.54729 7.91201H6.10716V5.70803C6.10716 5.58994 6.02844 5.51123 5.91036 5.51123C5.79228 5.51123 5.71357 5.58994 5.71357 5.70803V9.15176L5.6742 9.13208L4.3951 6.79035C4.23768 6.41647 3.88346 6.18033 3.48989 6.18033H0.872679C0.754597 6.18033 0.675884 6.25904 0.675884 6.37712V8.18755C0.282319 8.26624 0.00683594 8.62046 0.00683594 9.03371C0.00683594 10.0176 0.00683594 10.7851 0.00683594 11.8281C0.00683594 11.9461 0.0855489 12.0249 0.203631 12.0249H0.695594C0.734963 12.5562 1.18756 12.9891 1.75823 12.9891C2.30922 12.9891 2.76184 12.5562 2.82087 12.0249H3.5096C3.56863 12.5758 4.02125 12.9891 4.57224 12.9891C5.12323 12.9891 5.57585 12.5562 5.63488 12.0249H5.91039C6.02847 12.0249 6.10718 11.9265 6.10718 11.8281C6.10718 9.86021 6.10718 10.2931 6.10718 8.30561H8.54731C8.66539 8.30561 8.74411 8.22689 8.74411 8.10881C8.74411 7.99073 8.66534 7.91201 8.54729 7.91201ZM1.06947 6.55421H3.48992V6.59358C3.72606 6.59358 3.94251 6.73132 4.04091 6.96746C4.04091 6.96746 4.04091 6.98714 4.06059 6.98714L5.04452 8.79757L5.02483 8.77788C4.92644 8.73851 4.80838 8.73851 4.72967 8.79757C4.63127 8.8566 4.59193 8.95499 4.59193 9.05339V9.50599H3.03732V8.54174C3.03732 8.32529 2.86021 8.14818 2.64376 8.14818H1.06947V6.55421ZM1.75821 12.5955C1.38433 12.5955 1.08913 12.3003 1.08913 11.9264C1.08913 11.5525 1.3843 11.2574 1.75821 11.2574C2.13211 11.2574 2.42728 11.5525 2.42728 11.9264C2.42728 12.3003 2.11243 12.5955 1.75821 12.5955ZM4.57224 12.5955C4.19836 12.5955 3.90317 12.3003 3.90317 11.9264C3.90317 11.5525 4.19834 11.2574 4.57224 11.2574C4.94615 11.2574 5.24131 11.5525 5.24131 11.9264C5.24129 12.3003 4.94612 12.5955 4.57224 12.5955ZM5.71359 11.6313H5.57585C5.43811 11.1787 5.04454 10.8638 4.55258 10.8638C4.06062 10.8638 3.64737 11.1983 3.52931 11.6313H2.76184C2.6241 11.1787 2.23054 10.8638 1.73857 10.8638C1.24661 10.8638 0.833361 11.1983 0.715304 11.6313H0.400401V10.608H5.71359V11.6313ZM5.73325 10.2144H0.400401V9.05337C0.400401 8.77786 0.616855 8.5614 0.872679 8.5614H2.62405V9.72244C2.62405 9.84052 2.70276 9.91923 2.82084 9.91923H4.76901C4.88709 9.91923 4.96581 9.84052 4.96581 9.72244V9.21079L5.73328 9.62404V10.2144H5.73325Z" fill="black"/>
<path d="M12.9162 4.3297L6.61904 0.0397808C6.56002 0.000411608 6.46162 0.000411608 6.40259 0.0397808L0.0858132 4.3297C0.00710017 4.36907 -0.0125844 4.46744 0.00710017 4.54616C0.0267848 4.62487 0.105498 4.6839 0.203895 4.6839H0.321978V5.80557C0.321978 5.92365 0.400691 6.00236 0.518773 6.00236C0.636855 6.00236 0.715568 5.92365 0.715568 5.80557V4.6839H12.2865V12.5946H6.14677C6.02868 12.5946 5.94997 12.6734 5.94997 12.7914C5.94997 12.9095 6.02868 12.9882 6.14677 12.9882H12.4832C12.6013 12.9882 12.68 12.9095 12.68 12.7914V4.6839H12.7981C12.8768 4.6839 12.9555 4.62487 12.9949 4.54616C13.0146 4.46744 12.9752 4.36905 12.9162 4.3297ZM0.833599 4.29033L6.50099 0.433371L12.1684 4.29036H0.833599V4.29033Z" fill="black"/>
<path d="M8.76387 9.68311H6.7173C6.59922 9.68311 6.52051 9.76182 6.52051 9.8799V11.9265C6.52051 12.0445 6.59922 12.1233 6.7173 12.1233H8.76387C8.88192 12.1233 8.96066 12.0445 8.96066 11.9265V9.8799C8.96066 9.76182 8.86226 9.68311 8.76387 9.68311ZM8.56707 11.7296H6.91407V10.0766H8.56707V11.7296Z" fill="black"/>
<path d="M11.6369 9.68311H9.59035C9.47227 9.68311 9.39355 9.76182 9.39355 9.8799V11.9265C9.39355 12.0445 9.47227 12.1233 9.59035 12.1233H11.6369C11.755 12.1233 11.8337 12.0445 11.8337 11.9265V9.8799C11.8337 9.76182 11.755 9.68311 11.6369 9.68311ZM11.4401 11.7296H9.78712V10.0766H11.4401V11.7296Z" fill="black"/>
<path d="M11.6369 6.81006H9.59035C9.47227 6.81006 9.39355 6.88877 9.39355 7.00685V9.05342C9.39355 9.15182 9.47227 9.25021 9.59035 9.25021H11.6369C11.755 9.25021 11.8337 9.1715 11.8337 9.05342V7.00685C11.8337 6.88877 11.755 6.81006 11.6369 6.81006ZM11.4401 8.85662H9.78712V7.20362H11.4401V8.85662Z" fill="black"/>
<path d="M8.76387 5.21606H6.7173C6.59922 5.21606 6.52051 5.29478 6.52051 5.41286V7.45941C6.52051 7.57749 6.59922 7.65621 6.7173 7.65621H8.76387C8.88192 7.65621 8.96066 7.57749 8.96066 7.45941V5.41283C8.96066 5.29478 8.88192 5.21606 8.76387 5.21606ZM8.56707 7.24293H6.91407V5.58994H8.56707V7.24293Z" fill="black"/>
<path d="M6.54038 1.41797C5.87131 1.41797 5.32031 1.96896 5.32031 2.63803C5.32031 3.30711 5.87131 3.8581 6.54038 3.8581C7.20946 3.8581 7.76045 3.30711 7.76045 2.63803C7.76045 1.96899 7.20946 1.41797 6.54038 1.41797ZM6.54038 3.46453C6.08779 3.46453 5.71388 3.09065 5.71388 2.63803C5.71388 2.18544 6.08776 1.81153 6.54038 1.81153C6.993 1.81153 7.36689 2.18541 7.36689 2.63803C7.36689 3.09065 6.993 3.46453 6.54038 3.46453Z" fill="black"/>
</g>
<defs>
<clipPath id="clip0_64_2288">
<rect width="13" height="13" fill="white"/>
</clipPath>
</defs>
</svg>
